<?xml version="1.0" encoding="UTF-8"?>
<svg width="64px" height="64px" viewBox="0 0 64 64" version="1.1" xmlns="http://www.w3.org/2000/svg" xmlns:xlink="http://www.w3.org/1999/xlink">
    <!-- Generator: Sketch 52.2 (67145) - http://www.bohemiancoding.com/sketch -->
    <title>Help Icon - Billing and Accounts</title>
    <desc>Created with Sketch.</desc>
    <g id="Help-Icon---Billing-and-Accounts" stroke="none" stroke-width="1" fill="none" fill-rule="evenodd">
        <g id="Group-9">
            <polygon id="Fill-1" points="0 64 64 64 64 0 0 0"></polygon>
            <g id="Group-8" transform="translate(0.000000, 5.000000)" fill="#2580E5">
                <path d="M40,11 L19,11 C18.447,11 18,11.447 18,12 L18,13 C18,13.553 18.447,14 19,14 L40,14 C40.552,14 41,13.553 41,13 L41,12 C41,11.447 40.552,11 40,11" id="Fill-2"></path>
                <path d="M56,50 C56,50.552 55.551,51 55,51 L35.973,51 C38.113,48.156 39.528,44.736 39.899,41 L51,41 C51.552,41 52,40.553 52,40 L52,39 C52,38.447 51.552,38 51,38 L39.95,38 C39.845,35.896 39.42,33.883 38.716,32 L51,32 C51.552,32 52,31.553 52,31 L52,30 C52,29.447 51.552,29 51,29 L37.303,29 C35.944,26.654 34.123,24.617 31.963,23 L51,23 C51.552,23 52,22.553 52,22 L52,21 C52,20.447 51.552,20 51,20 L26.223,20 C24.263,19.358 22.175,19 20,19 C17.909,19 15.895,19.323 14,19.919 L14,4 C14,3.448 14.448,3 15,3 L45,3 L45,13 C45,13.553 45.447,14 46,14 L56,14 L56,50 Z M11.333,53.599 C12.387,49.799 15.869,47 20,47 C24.13,47 27.613,49.799 28.666,53.599 C26.125,55.113 23.167,56 20,56 C16.833,56 13.875,55.113 11.333,53.599 Z M3,39 C3,29.626 10.626,22 20,22 C29.374,22 37,29.626 37,39 C37,44.08 34.749,48.634 31.205,51.752 C29.489,47.225 25.128,44 20,44 C14.871,44 10.511,47.225 8.795,51.752 C5.251,48.634 3,44.08 3,39 Z M48,7.242 L51.757,11 L48,11 L48,7.242 Z M58.707,13.707 L45.293,0.293 C45.105,0.105 44.851,0 44.585,0 L15,0 C12.791,0 11,1.791 11,4 L11,21.157 C4.48,24.453 0,31.195 0,39 C0,50.046 8.954,59 20,59 C25.064,59 29.675,57.103 33.198,54 L55,54 C57.209,54 59,52.209 59,50 L59,14.414 C59,14.149 58.895,13.895 58.707,13.707 Z" id="Fill-4"></path>
                <path d="M20,30 C22.206,30 24,31.794 24,34 C24,36.206 22.206,38 20,38 C17.794,38 16,36.206 16,34 C16,31.794 17.794,30 20,30 M20,41 C23.866,41 27,37.866 27,34 C27,30.134 23.866,27 20,27 C16.134,27 13,30.134 13,34 C13,37.866 16.134,41 20,41" id="Fill-6"></path>
            </g>
        </g>
    </g>
</svg>