<?xml version="1.0" encoding="UTF-8"?>
<svg width="64px" height="64px" viewBox="0 0 64 64" version="1.1" xmlns="http://www.w3.org/2000/svg" xmlns:xlink="http://www.w3.org/1999/xlink">
    <!-- Generator: Sketch 52.2 (67145) - http://www.bohemiancoding.com/sketch -->
    <title>Help Icon - Submit a Ticket</title>
    <desc>Created with Sketch.</desc>
    <g id="Help-Icon---Submit-a-Ticket" stroke="none" stroke-width="1" fill="none" fill-rule="evenodd">
        <g id="Group-4">
            <polygon id="Fill-1" points="0 64 64 64 64 0 0 0"></polygon>
            <path d="M58.4641,8.3643 L55.6361,5.5353 L57.7571,3.4143 L60.5861,6.2423 L58.4641,8.3643 Z M53.0001,55.0003 C53.0001,55.5523 52.5511,56.0003 52.0001,56.0003 L12.0001,56.0003 C11.4481,56.0003 11.0001,55.5523 11.0001,55.0003 L11.0001,9.0003 C11.0001,8.4483 11.4481,8.0003 12.0001,8.0003 L48.9291,8.0003 L40.9291,16.0003 L17.0001,16.0003 C16.4471,16.0003 16.0001,16.4473 16.0001,17.0003 L16.0001,18.0003 C16.0001,18.5523 16.4471,19.0003 17.0001,19.0003 L37.9291,19.0003 L31.9291,25.0003 L17.0001,25.0003 C16.4471,25.0003 16.0001,25.4473 16.0001,26.0003 L16.0001,27.0003 C16.0001,27.5523 16.4471,28.0003 17.0001,28.0003 L29.3321,28.0003 L27.7771,34.0003 L16.0001,34.0003 L16.0001,37.0003 L27.0001,37.0003 L36.5441,34.5273 L53.0001,18.0713 L53.0001,55.0003 Z M32.1721,28.9993 L53.5151,7.6573 L56.3431,10.4853 L35.0001,31.8283 L31.1831,32.8173 L32.1721,28.9993 Z M63.4141,4.8283 L59.1721,0.5863 C58.7811,0.1953 58.2691,0.0003 57.7571,0.0003 C57.2451,0.0003 56.7341,0.1953 56.3431,0.5863 L51.9291,5.0003 L12.0001,5.0003 C9.7911,5.0003 8.0001,6.7913 8.0001,9.0003 L8.0001,55.0003 C8.0001,57.2093 9.7911,59.0003 12.0001,59.0003 L52.0001,59.0003 C54.2091,59.0003 56.0001,57.2093 56.0001,55.0003 L56.0001,15.0713 L63.4141,7.6573 C64.1951,6.8763 64.1951,5.6093 63.4141,4.8283 Z" id="Fill-2" fill="#2580E5"></path>
        </g>
    </g>
</svg>