<?xml version="1.0" encoding="UTF-8"?>
<svg width="64px" height="64px" viewBox="0 0 64 64" version="1.1" xmlns="http://www.w3.org/2000/svg" xmlns:xlink="http://www.w3.org/1999/xlink">
    <!-- Generator: Sketch 52.2 (67145) - http://www.bohemiancoding.com/sketch -->
    <title>Help Icon - Getting started / Setting up</title>
    <desc>Created with Sketch.</desc>
    <defs>
        <polygon id="path-1" points="0.0006 0.0001 63.5207758 0.0001 63.5207758 59 0.0006 59"></polygon>
    </defs>
    <g id="Help-Icon---Getting-started-/-Setting-up" stroke="none" stroke-width="1" fill="none" fill-rule="evenodd">
        <g id="Group-10">
            <polygon id="Fill-1" points="0 64 64 64 64 0 0 0"></polygon>
            <g id="Group-9" transform="translate(0.000000, 5.000000)">
                <path d="M7.0002,9 L18.0002,9 C18.5522,9 19.0002,8.553 19.0002,8 L19.0002,7 C19.0002,6.447 18.5522,6 18.0002,6 L7.0002,6 C6.4472,6 6.0002,6.447 6.0002,7 L6.0002,8 C6.0002,8.553 6.4472,9 7.0002,9" id="Fill-2" fill="#2580E5"></path>
                <g id="Group-6">
                    <mask id="mask-2" fill="white">
                        <use xlink:href="#path-1"></use>
                    </mask>
                    <g id="Clip-5"></g>
                    <path d="M57.5236,49.5771 L54.1056,48.2051 L52.5376,47.5751 L51.1866,48.5901 C50.3846,49.1911 49.5506,49.6801 48.7076,50.0401 L47.1546,50.7031 L46.9166,52.3741 L46.3986,56.0001 L41.6026,56.0001 L41.0846,52.3741 L40.8456,50.7031 L39.2926,50.0401 C38.4496,49.6801 37.6156,49.1911 36.8146,48.5901 L35.4626,47.5751 L33.8956,48.2051 L30.4766,49.5771 L28.0786,45.4231 L30.9696,43.1541 L32.2956,42.1121 L32.0966,40.4381 C32.0316,39.8971 32.0006,39.4271 32.0006,39.0001 C32.0006,38.5731 32.0316,38.1021 32.0966,37.5611 L32.2956,35.8881 L30.9696,34.8461 L28.0786,32.5771 L30.4766,28.4231 L33.8956,29.7951 L35.4626,30.4251 L36.8146,29.4101 C37.6146,28.8081 38.4486,28.3201 39.2926,27.9601 L40.8456,27.2971 L41.0846,25.6261 L41.6026,22.0001 L46.3986,22.0001 L46.9166,25.6261 L47.1546,27.2971 L48.7076,27.9601 C49.5506,28.3201 50.3846,28.8081 51.1866,29.4101 L52.5376,30.4251 L54.1056,29.7951 L57.5236,28.4231 L59.9216,32.5771 L57.0306,34.8461 L55.7046,35.8881 L55.9036,37.5611 C55.9686,38.1021 56.0006,38.5731 56.0006,39.0001 C56.0006,39.4271 55.9686,39.8971 55.9036,40.4381 L55.7046,42.1121 L57.0306,43.1541 L59.9216,45.4231 L57.5236,49.5771 Z M4.0006,49.0001 C3.4486,49.0001 3.0006,48.5521 3.0006,48.0001 L3.0006,15.0001 L55.0006,15.0001 L55.0006,26.2031 L52.9876,27.0111 C52.0326,26.2941 50.9986,25.6771 49.8856,25.2011 L49.1226,19.8581 C49.0526,19.3661 48.6306,19.0001 48.1326,19.0001 L39.8676,19.0001 C39.3696,19.0001 38.9476,19.3661 38.8776,19.8581 L38.1146,25.2011 C37.0016,25.6771 35.9676,26.2941 35.0126,27.0111 L29.9846,24.9931 C29.8626,24.9441 29.7366,24.9211 29.6126,24.9211 C29.2646,24.9211 28.9296,25.1031 28.7466,25.4211 L24.6136,32.5791 C24.3646,33.0101 24.4706,33.5581 24.8616,33.8651 L29.1176,37.2061 C29.0466,37.7951 29.0006,38.3911 29.0006,39.0001 C29.0006,39.6081 29.0466,40.2051 29.1176,40.7941 L24.8616,44.1351 C24.4706,44.4411 24.3646,44.9901 24.6136,45.4211 L26.6796,49.0001 L4.0006,49.0001 Z M4.0006,3.0001 L54.0006,3.0001 C54.5516,3.0001 55.0006,3.4481 55.0006,4.0001 L55.0006,12.0001 L3.0006,12.0001 L3.0006,4.0001 C3.0006,3.4481 3.4486,3.0001 4.0006,3.0001 Z M58.8826,40.7941 C58.9536,40.2051 59.0006,39.6081 59.0006,39.0001 C59.0006,38.3911 58.9536,37.7951 58.8826,37.2061 L63.1386,33.8651 C63.5296,33.5581 63.6356,33.0101 63.3866,32.5791 L59.2536,25.4211 C59.0706,25.1031 58.7356,24.9211 58.3876,24.9211 C58.2636,24.9211 58.1376,24.9441 58.0156,24.9931 L58.0006,24.9991 L58.0006,4.0001 C58.0006,1.7911 56.2096,0.0001 54.0006,0.0001 L4.0006,0.0001 C1.7906,0.0001 0.0006,1.7911 0.0006,4.0001 L0.0006,48.0001 C0.0006,50.2091 1.7906,52.0001 4.0006,52.0001 L28.4116,52.0001 L28.7466,52.5791 C28.9296,52.8961 29.2646,53.0791 29.6126,53.0791 C29.7366,53.0791 29.8626,53.0561 29.9846,53.0071 L35.0126,50.9891 C35.9676,51.7061 37.0016,52.3231 38.1146,52.7991 L38.8776,58.1411 C38.9476,58.6341 39.3696,59.0001 39.8676,59.0001 L48.1326,59.0001 C48.6306,59.0001 49.0526,58.6341 49.1226,58.1411 L49.8856,52.7991 C50.9986,52.3231 52.0326,51.7061 52.9876,50.9891 L58.0156,53.0071 C58.1376,53.0561 58.2636,53.0791 58.3876,53.0791 C58.7356,53.0791 59.0706,52.8961 59.2536,52.5791 L63.3866,45.4211 C63.6356,44.9901 63.5296,44.4411 63.1386,44.1351 L58.8826,40.7941 Z" id="Fill-4" fill="#2580E5" mask="url(#mask-2)"></path>
                </g>
                <path d="M44.0002,44 C41.2432,44 39.0002,41.757 39.0002,39 C39.0002,36.243 41.2432,34 44.0002,34 C46.7572,34 49.0002,36.243 49.0002,39 C49.0002,41.757 46.7572,44 44.0002,44 M44.0002,31 C39.5822,31 36.0002,34.582 36.0002,39 C36.0002,43.418 39.5822,47 44.0002,47 C48.4182,47 52.0002,43.418 52.0002,39 C52.0002,34.582 48.4182,31 44.0002,31" id="Fill-7" fill="#2580E5"></path>
            </g>
        </g>
    </g>
</svg>