<?xml version="1.0" encoding="UTF-8"?>
<svg width="256px" height="256px" viewBox="0 0 256 256" version="1.1" xmlns="http://www.w3.org/2000/svg" xmlns:xlink="http://www.w3.org/1999/xlink">
    <!-- Generator: Sketch 52.2 (67145) - http://www.bohemiancoding.com/sketch -->
    <title>Icon - Data Private</title>
    <desc>Created with Sketch.</desc>
    <g id="Icon---Data-Private" stroke="none" stroke-width="1" fill="none" fill-rule="evenodd">
        <g>
            <polygon id="Fill-1" points="0 256 256 256 256 0 0 0"></polygon>
            <g id="Group-246">
                <path d="M243.149141,73.996288 L111.065088,0.781141333 C107.537408,-1.17469867 104.397141,0.669354667 104.054101,4.89847467 L95.4525013,110.877355 C95.1094613,115.105621 97.6925013,120.122368 101.220181,122.078208 L233.304235,195.293355 C236.831915,197.248341 239.971328,195.404288 240.315221,191.176021 L248.916821,85.196288 C249.259861,80.9680213 246.676821,75.952128 243.149141,73.996288" id="Fill-2" fill="#2B3D54"></path>
                <polygon id="Fill-4" fill="#FFFFFF" points="109.534549 5.93664 100.725589 114.466987 234.938709 188.86144 243.746816 80.3319467"></polygon>
                <path d="M117.058731,16.1117013 C116.176384,15.6227413 115.393024,16.082688 115.306837,17.139968 C115.221504,18.197248 115.865771,19.4550613 116.747264,19.9440213 C117.629611,20.4329813 118.413824,19.9670613 118.499157,18.9097813 C118.585344,17.8525013 117.941077,16.6006613 117.058731,16.1117013" id="Fill-6" fill="#FF6157"></path>
                <path d="M122.384128,19.063296 C121.501781,18.574336 120.718421,19.0342827 120.632235,20.092416 C120.546901,21.1488427 121.191168,22.406656 122.072661,22.895616 C122.955008,23.384576 123.739221,22.918656 123.824555,21.861376 C123.910741,20.804096 123.265621,19.552256 122.384128,19.063296" id="Fill-8" fill="#F3C868"></path>
                <path d="M127.709184,22.0154027 C126.827691,21.5264427 126.043477,21.9863893 125.958144,23.0436693 C125.871957,24.1009493 126.516224,25.3587627 127.398571,25.8477227 C128.280064,26.3366827 129.064277,25.8707627 129.150464,24.8134827 C129.236651,23.7562027 128.591531,22.5043627 127.709184,22.0154027" id="Fill-10" fill="#2ACB42"></path>
                <path d="M139.767893,38.0357973 L115.269547,24.4558507 C114.971733,24.2920107 114.714027,24.449024 114.685013,24.804864 L114.477653,27.3554773 C114.449493,27.7061973 114.66112,28.1234773 114.95808,28.289024 L139.456427,41.8681173 C139.74912,42.0302507 140.011947,41.8757973 140.04096,41.5250773 L140.247467,38.974464 C140.27648,38.618624 140.060587,38.1979307 139.767893,38.0357973" id="Fill-12" fill="#D4EAFF"></path>
                <path d="M167.463339,53.3879467 L142.960725,39.80544 C142.668032,39.6433067 142.405205,39.79776 142.376192,40.1544533 L142.168832,42.7050667 C142.140672,43.0557867 142.356565,43.4756267 142.649259,43.63776 L167.152725,57.2202667 C167.445419,57.3824 167.708245,57.2279467 167.736405,56.8772267 L167.942912,54.3266133 C167.971925,53.96992 167.756032,53.55008 167.463339,53.3879467" id="Fill-14" fill="#D4EAFF"></path>
                <path d="M182.375424,61.65376 L170.655744,55.1573333 C170.363051,54.9952 170.100224,55.1496533 170.072064,55.5054933 L169.864704,58.05696 C169.836544,58.40768 170.052437,58.82752 170.344277,58.9896533 L182.063957,65.48608 C182.356651,65.6482133 182.619477,65.49376 182.648491,65.14304 L182.854997,62.5924267 C182.884011,62.2357333 182.668117,61.8158933 182.375424,61.65376" id="Fill-16" fill="#D4EAFF"></path>
                <path d="M190.893312,66.3749973 L185.567659,63.4233173 C185.274965,63.261184 185.012139,63.4156373 184.983125,63.7714773 L184.776619,66.322944 C184.748459,66.673664 184.964352,67.093504 185.257045,67.2556373 L190.581845,70.2073173 C190.878805,70.3720107 191.142485,70.2175573 191.170645,69.8668373 L191.377152,67.316224 C191.407019,66.960384 191.190272,66.5396907 190.893312,66.3749973" id="Fill-18" fill="#D4EAFF"></path>
                <path d="M205.810005,74.643712 L194.090325,68.1472853 C193.797632,67.985152 193.534805,68.1396053 193.505792,68.4954453 L193.299285,71.046912 C193.271125,71.397632 193.487019,71.817472 193.778859,71.9796053 L205.498539,78.476032 C205.791232,78.6381653 206.054059,78.483712 206.082219,78.132992 L206.289579,75.5823787 C206.318592,75.2256853 206.102699,74.8058453 205.810005,74.643712" id="Fill-20" fill="#D4EAFF"></path>
                <path d="M235.633323,91.1749973 L209.002496,76.413184 C208.709803,76.2510507 208.446976,76.405504 208.417109,76.761344 L208.210603,79.3128107 C208.182443,79.6635307 208.398336,80.0833707 208.691029,80.245504 L235.322709,95.0073173 C235.615403,95.1694507 235.878229,95.0149973 235.906389,94.6642773 L236.112896,92.113664 C236.142763,91.757824 235.926016,91.3371307 235.633323,91.1749973" id="Fill-22" fill="#D4EAFF"></path>
                <path d="M126.258773,39.8900053 L114.54336,33.396992 C114.2464,33.2314453 113.988693,33.3884587 113.95968,33.7391787 L113.75232,36.2966187 C113.72416,36.6464853 113.935787,37.0637653 114.232747,37.2284587 L125.947307,43.7223253 C126.24,43.8844587 126.502827,43.7300053 126.530987,43.3792853 L126.738347,40.8226987 C126.76736,40.4719787 126.550613,40.0521387 126.258773,39.8900053" id="Fill-24" fill="#D4EAFF"></path>
                <path d="M170.994176,64.6875307 L159.279616,58.193664 C158.986923,58.0315307 158.724096,58.185984 158.695936,58.536704 L158.488576,61.094144 C158.459563,61.4440107 158.676309,61.8638507 158.968149,62.025984 L170.683563,68.5198507 C170.980523,68.684544 171.243349,68.5300907 171.272363,68.1793707 L171.479723,65.622784 C171.507883,65.2729173 171.291989,64.852224 170.994176,64.6875307" id="Fill-26" fill="#D4EAFF"></path>
                <path d="M198.689963,80.0395947 L174.191616,66.459648 C173.898923,66.2975147 173.636096,66.451968 173.607083,66.802688 L173.399723,69.3592747 C173.371563,69.7099947 173.587456,70.1298347 173.880149,70.291968 L198.379349,83.8719147 C198.675456,84.036608 198.934016,83.8795947 198.962176,83.5288747 L199.169536,80.972288 C199.198549,80.621568 198.987776,80.204288 198.689963,80.0395947" id="Fill-28" fill="#D4EAFF"></path>
                <path d="M147.564544,51.7003947 L129.455957,41.6617813 C129.158144,41.497088 128.900437,41.6549547 128.872277,42.0048213 L128.664917,44.5622613 C128.635904,44.912128 128.847531,45.3302613 129.144491,45.4949547 L147.253931,55.5327147 C147.546624,55.694848 147.809451,55.5403947 147.837611,55.1896747 L148.044971,52.633088 C148.073131,52.282368 147.857237,51.862528 147.564544,51.7003947" id="Fill-30" fill="#D4EAFF"></path>
                <path d="M156.082517,56.421632 L150.756864,53.469952 C150.465024,53.3078187 150.201344,53.462272 150.173184,53.8121387 L149.965824,56.3695787 C149.936811,56.7202987 150.153557,57.1401387 150.446251,57.302272 L155.771051,60.253952 C156.068864,60.4186453 156.326571,60.261632 156.354731,59.910912 L156.562091,57.3543253 C156.591104,57.0036053 156.379477,56.5863253 156.082517,56.421632" id="Fill-32" fill="#D4EAFF"></path>
                <path d="M222.124203,93.0292053 L210.408789,86.536192 C210.112683,86.3706453 209.854123,86.5276587 209.825963,86.8783787 L209.618603,89.4358187 C209.590443,89.7856853 209.802069,90.2029653 210.098176,90.3676587 L221.813589,96.8615253 C222.106283,97.0236587 222.368256,96.8692053 222.396416,96.5184853 L222.603776,93.9618987 C222.633643,93.612032 222.416896,93.1913387 222.124203,93.0292053" id="Fill-34" fill="#D4EAFF"></path>
                <path d="M207.212459,84.7633067 L201.886805,81.8116267 C201.594965,81.6494933 201.331285,81.8039467 201.303125,82.1546667 L201.095765,84.7112533 C201.067605,85.0619733 201.283499,85.4818133 201.576192,85.6439467 L206.901845,88.5956267 C207.193685,88.75776 207.456512,88.6033067 207.484672,88.2525867 L207.692032,85.696 C207.721045,85.3461333 207.505152,84.92544 207.212459,84.7633067" id="Fill-36" fill="#D4EAFF"></path>
                <path d="M230.646699,97.753344 L225.321899,94.801664 C225.024085,94.6369707 224.765525,94.793984 224.737365,95.1438507 L224.530005,97.7012907 C224.501845,98.0520107 224.713472,98.4692907 225.010432,98.633984 L230.336085,101.585664 C230.628779,101.747797 230.890752,101.593344 230.918912,101.242624 L231.126272,98.6860373 C231.156139,98.3353173 230.939392,97.9154773 230.646699,97.753344" id="Fill-38" fill="#D4EAFF"></path>
                <path d="M119.143339,45.2887893 L113.818539,42.3371093 C113.520725,42.172416 113.263019,42.323456 113.234005,42.679296 L113.027499,45.2307627 C112.998485,45.5814827 113.210112,45.9987627 113.507925,46.163456 L118.832725,49.115136 C119.125419,49.2772693 119.388245,49.122816 119.416405,48.7729493 L119.623765,46.2214827 C119.652779,45.8647893 119.436032,45.4509227 119.143339,45.2887893" id="Fill-40" fill="#D4EAFF"></path>
                <path d="M146.839125,60.6404267 L122.335659,47.05792 C122.042965,46.89664 121.780992,47.0442667 121.751979,47.40096 L121.544619,49.9524267 C121.516459,50.3022933 121.733205,50.7221333 122.025045,50.8842667 L146.528512,64.4667733 C146.821205,64.6289067 147.084032,64.4744533 147.112192,64.1245867 L147.319552,61.57312 C147.348565,61.21728 147.131819,60.80256 146.839125,60.6404267" id="Fill-42" fill="#D4EAFF"></path>
                <path d="M234.182485,109.055829 L207.550805,94.294016 C207.258112,94.1318827 206.996139,94.2803627 206.966272,94.6362027 L206.759765,97.1876693 C206.731605,97.537536 206.947499,97.9582293 207.240192,98.1203627 L233.871872,112.882176 C234.164565,113.044309 234.427392,112.889856 234.455552,112.539989 L234.662059,109.988523 C234.691925,109.631829 234.475179,109.217963 234.182485,109.055829" id="Fill-44" fill="#D4EAFF"></path>
                <path d="M131.197099,61.3067093 L113.092779,51.2715093 C112.795819,51.106816 112.537259,51.2638293 112.509099,51.6145493 L112.301739,54.171136 C112.273579,54.5210027 112.485205,54.939136 112.782165,55.1038293 L130.886485,65.1390293 C131.183445,65.3037227 131.446272,65.1492693 131.475285,64.7985493 L131.682645,62.2419627 C131.710805,61.8912427 131.494912,61.4714027 131.197099,61.3067093" id="Fill-46" fill="#D4EAFF"></path>
                <path d="M231.32416,116.807936 L213.21984,106.772736 C212.92288,106.608043 212.660053,106.762496 212.631893,107.112363 L212.424533,109.669803 C212.394667,110.019669 212.611413,110.440363 212.909227,110.605056 L231.013547,120.640256 C231.309653,120.804949 231.568213,120.647936 231.596373,120.297216 L231.803733,117.740629 C231.8336,117.389909 231.621973,116.972629 231.32416,116.807936" id="Fill-48" fill="#D4EAFF"></path>
                <path d="M145.388373,78.515456 L112.367787,60.211456 C112.070827,60.0467627 111.812267,60.198656 111.784107,60.554496 L111.576747,63.1051093 C111.547733,63.4618027 111.75936,63.8731093 112.05632,64.0378027 L145.07776,82.3418027 C145.370453,82.503936 145.632427,82.355456 145.66144,81.999616 L145.8688,79.4481493 C145.897813,79.091456 145.681067,78.6775893 145.388373,78.515456" id="Fill-50" fill="#D4EAFF"></path>
                <path d="M232.731648,126.930432 L198.646955,108.036779 C198.349141,107.872085 198.091435,108.023125 198.062421,108.379819 L197.855915,110.930432 C197.826901,111.287125 198.038528,111.698432 198.335488,111.863125 L232.421035,130.756779 C232.713728,130.918912 232.975701,130.770432 233.004715,130.414592 L233.211221,127.863125 C233.241088,127.507285 233.024341,127.092565 232.731648,126.930432" id="Fill-52" fill="#D4EAFF"></path>
                <path d="M129.746688,79.1812267 L111.642368,69.1460267 C111.345408,68.9813333 111.086848,69.1383467 111.058688,69.4890667 L110.850475,72.0456533 C110.822315,72.3963733 111.033941,72.8136533 111.330901,72.9783467 L129.435221,83.0135467 C129.732181,83.17824 129.995861,83.0237867 130.024021,82.6730667 L130.231381,80.11648 C130.260395,79.7666133 130.043648,79.34592 129.746688,79.1812267" id="Fill-54" fill="#D4EAFF"></path>
                <path d="M227.745024,133.502891 L209.635584,123.465131 C209.344597,123.302997 209.080917,123.457451 209.052757,123.808171 L208.845397,126.364757 C208.816384,126.714624 209.032277,127.135317 209.324971,127.297451 L227.434411,137.335211 C227.727104,137.497344 227.989077,137.342891 228.018091,136.992171 L228.225451,134.435584 C228.254464,134.084864 228.037717,133.665024 227.745024,133.502891" id="Fill-56" fill="#D4EAFF"></path>
                <path d="M135.41504,91.6658347 L110.916693,78.085888 C110.619733,77.922048 110.361173,78.0790613 110.333013,78.428928 L110.125653,80.9803947 C110.09664,81.3362347 110.30912,81.7483947 110.60608,81.913088 L135.104427,95.4921813 C135.39712,95.6543147 135.659947,95.5058347 135.688107,95.1499947 L135.895467,92.598528 C135.923627,92.2486613 135.707733,91.827968 135.41504,91.6658347" id="Fill-58" fill="#D4EAFF"></path>
                <path d="M221.694208,139.491243 L197.195861,125.911296 C196.898048,125.746603 196.640341,125.903616 196.611328,126.254336 L196.404821,128.805803 C196.375808,129.161643 196.588288,129.572949 196.885248,129.738496 L221.383595,143.317589 C221.676288,143.479723 221.938261,143.331243 221.967275,142.975403 L222.173781,140.423936 C222.203648,140.073216 221.986901,139.653376 221.694208,139.491243" id="Fill-60" fill="#D4EAFF"></path>
                <path d="M231.280811,144.805376 L224.886784,141.260629 C224.594091,141.098496 224.330411,141.252949 224.302251,141.603669 L224.095744,144.154283 C224.066731,144.510976 224.283477,144.925696 224.576171,145.087829 L230.970197,148.631723 C231.262891,148.793856 231.524864,148.645376 231.553877,148.289536 L231.760384,145.738069 C231.789397,145.387349 231.573504,144.967509 231.280811,144.805376" id="Fill-62" fill="#D4EAFF"></path>
                <path d="M115.516672,89.97248 L110.191872,87.0208 C109.894059,86.8561067 109.636352,87.01312 109.607339,87.36384 L109.399979,89.9204267 C109.371819,90.2711467 109.583445,90.6884267 109.880405,90.85312 L115.206059,93.8048 C115.498752,93.9669333 115.761579,93.81248 115.789739,93.46176 L115.997099,90.9051733 C116.025259,90.5553067 115.809365,90.1346133 115.516672,89.97248" id="Fill-64" fill="#D4EAFF"></path>
                <path d="M143.212459,105.324544 L118.708992,91.7420373 C118.416299,91.579904 118.153472,91.7343573 118.125312,92.0850773 L117.917952,94.641664 C117.888939,94.992384 118.105685,95.412224 118.397525,95.5743573 L142.900992,109.156864 C143.193685,109.318997 143.456512,109.164544 143.484672,108.813824 L143.692885,106.257237 C143.721045,105.906517 143.505152,105.486677 143.212459,105.324544" id="Fill-66" fill="#D4EAFF"></path>
                <path d="M228.422485,152.557483 L203.924139,138.977536 C203.631445,138.815403 203.369472,138.969856 203.339605,139.320576 L203.132245,141.877163 C203.104085,142.227883 203.320832,142.647723 203.613525,142.809856 L228.111872,156.389803 C228.408832,156.554496 228.666539,156.397483 228.694699,156.046763 L228.902912,153.490176 C228.931925,153.139456 228.720299,152.722176 228.422485,152.557483" id="Fill-68" fill="#D4EAFF"></path>
                <path d="M127.570005,105.996288 L109.465685,95.961088 C109.168725,95.7963947 108.910165,95.953408 108.882005,96.304128 L108.674645,98.8547413 C108.646485,99.2114347 108.857259,99.6287147 109.155072,99.793408 L127.259392,109.828608 C127.556352,109.993301 127.819179,109.838848 127.848192,109.483008 L128.054699,106.931541 C128.083712,106.581675 127.866965,106.160981 127.570005,105.996288" id="Fill-70" fill="#D4EAFF"></path>
                <path d="M142.486699,114.265003 L130.767019,107.768576 C130.475179,107.606443 130.211499,107.760896 130.183339,108.111616 L129.975979,110.662229 C129.947819,111.018923 130.163712,111.438763 130.456405,111.600896 L142.176085,118.097323 C142.468779,118.259456 142.731605,118.105003 142.759765,117.749163 L142.967125,115.197696 C142.995285,114.846976 142.779392,114.427136 142.486699,114.265003" id="Fill-72" fill="#D4EAFF"></path>
                <path d="M207.460011,150.280021 L195.744597,143.786155 C195.447637,143.621461 195.189931,143.778475 195.160917,144.129195 L194.954411,146.680661 C194.925397,147.036501 195.137024,147.453781 195.433984,147.618475 L207.148544,154.112341 C207.441237,154.274475 207.704064,154.120021 207.733077,153.764181 L207.939584,151.212715 C207.968597,150.861995 207.752704,150.442155 207.460011,150.280021" id="Fill-74" fill="#D4EAFF"></path>
                <path d="M229.829973,162.679979 L210.656427,152.051712 C210.36032,151.887872 210.10176,152.044885 210.0736,152.394752 L209.865387,154.946219 C209.837227,155.302059 210.048,155.719339 210.345813,155.884885 L229.51936,166.512299 C229.812053,166.674432 230.074027,166.519979 230.10304,166.164139 L230.309547,163.612672 C230.339413,163.261952 230.122667,162.842112 229.829973,162.679979" id="Fill-76" fill="#D4EAFF"></path>
                <path d="M122.588331,112.571648 L108.740437,104.895061 C108.443477,104.731221 108.185771,104.888235 108.155904,105.244075 L107.949397,107.795541 C107.921237,108.145408 108.132864,108.563541 108.429824,108.728235 L122.277717,116.403968 C122.570411,116.566101 122.833237,116.411648 122.861397,116.060928 L123.067904,113.510315 C123.096917,113.153621 122.881024,112.733781 122.588331,112.571648" id="Fill-78" fill="#D4EAFF"></path>
                <path d="M131.106219,117.292885 L125.780565,114.341205 C125.488725,114.179072 125.225045,114.333525 125.196885,114.689365 L124.989525,117.240832 C124.960512,117.591552 125.177259,118.011392 125.469952,118.173525 L130.794752,121.125205 C131.092565,121.289899 131.350272,121.132885 131.378432,120.782165 L131.585792,118.231552 C131.614805,117.874859 131.403179,117.457579 131.106219,117.292885" id="Fill-80" fill="#D4EAFF"></path>
                <path d="M233.300821,195.017472 L101.216768,121.802325 C97.689088,119.846485 92.0408747,119.945472 88.6019413,122.025045 L2.52791467,174.076672 C-0.906752,176.153685 -0.831658667,179.424512 2.69602133,181.380352 L134.780075,254.595499 C138.307755,256.550485 143.955115,256.452352 147.389781,254.375339 L233.463808,202.323712 C236.904448,200.244139 236.828501,196.973312 233.300821,195.017472" id="Fill-82" fill="#D4EAFF"></path>
                <path d="M136.904192,210.099541 L78.3202987,177.625941 C77.140992,176.972288 75.2585387,177.005568 74.115072,177.696768 L43.0016853,196.511915 C41.859072,197.203115 41.8838187,198.293675 43.0631253,198.947328 L101.647019,231.420928 C102.821205,232.072021 104.703659,232.038741 105.846272,231.347541 L136.960512,212.532395 C138.103979,211.841195 138.078379,210.750635 136.904192,210.099541 M43.5810987,198.634155 C42.6996053,198.145195 42.675712,197.325995 43.5341653,196.807168 L74.647552,177.992021 C75.5017387,177.475755 76.920832,177.450155 77.8023253,177.939115 L136.386219,210.412715 C137.267712,210.901675 137.282219,211.720875 136.428032,212.237141 L105.314645,231.052288 C104.456192,231.571968 103.046485,231.595861 102.164992,231.107755 L43.5810987,198.634155" id="Fill-84" fill="#B3D3EA"></path>
                <path d="M107.36,137.22624 L95.64032,130.729813 C95.3476267,130.56768 94.87488,130.576213 94.5856,130.751147 L92.5137067,132.00384 C92.2295467,132.176213 92.23552,132.450133 92.5282133,132.612267 L104.247893,139.108693 C104.539733,139.270827 105.01248,139.262293 105.297493,139.090773 L107.369387,137.837227 C107.658667,137.662293 107.652693,137.388373 107.36,137.22624" id="Fill-86" fill="#2B3D54"></path>
                <path d="M218.137515,198.631253 L212.812715,195.679573 C212.514901,195.51488 212.046421,195.52512 211.757141,195.700053 L209.686101,196.9536 C209.401088,197.125973 209.402795,197.397333 209.698901,197.562027 L215.025408,200.513707 C215.317248,200.67584 215.789995,200.667307 216.075008,200.495787 L218.146901,199.24224 C218.437035,199.067307 218.430208,198.793387 218.137515,198.631253" id="Fill-88" fill="#2B3D54"></path>
                <path d="M209.615019,193.907115 L204.290219,190.955435 C203.997525,190.793301 203.523925,190.801835 203.234645,190.976768 L201.163605,192.229461 C200.878592,192.401835 200.885419,192.675755 201.177259,192.837888 L206.502912,195.789568 C206.794752,195.951701 207.267499,195.943168 207.552512,195.771648 L209.624405,194.518101 C209.914539,194.343168 209.907712,194.069248 209.615019,193.907115" id="Fill-90" fill="#2B3D54"></path>
                <path d="M201.092523,189.183317 L195.767723,186.231637 C195.475029,186.069504 195.001429,186.077184 194.712149,186.252117 L192.641109,187.505664 C192.356096,187.677184 192.362923,187.951957 192.654763,188.114091 L197.980416,191.065771 C198.277376,191.230464 198.745003,191.219371 199.030016,191.046997 L201.101909,189.794304 C201.392043,189.619371 201.390336,189.348011 201.092523,189.183317" id="Fill-92" fill="#2B3D54"></path>
                <path d="M192.570027,184.459179 L187.245227,181.507499 C186.952533,181.345365 186.478933,181.353045 186.189653,181.527979 L184.11776,182.781525 C183.8336,182.953045 183.840427,183.227819 184.132267,183.389952 L189.45792,186.341632 C189.75488,186.506325 190.227627,186.497792 190.51264,186.326272 L192.584533,185.072725 C192.873813,184.897792 192.86784,184.623872 192.570027,184.459179" id="Fill-94" fill="#2B3D54"></path>
                <path d="M184.05248,179.737515 L178.726827,176.785835 C178.429867,176.621141 177.95712,176.628821 177.66784,176.803755 L175.595947,178.057301 C175.310933,178.229675 175.31776,178.503595 175.61472,178.668288 L180.940373,181.619968 C181.232213,181.782101 181.70496,181.773568 181.989973,181.602048 L184.061867,180.348501 C184.352,180.173568 184.345173,179.899648 184.05248,179.737515" id="Fill-96" fill="#2B3D54"></path>
                <path d="M175.529984,175.013717 L170.204331,172.062037 C169.907371,171.897344 169.439744,171.907584 169.149611,172.082517 L167.077717,173.336064 C166.793557,173.507584 166.795264,173.778944 167.092224,173.944491 L172.417877,176.896171 C172.709717,177.058304 173.183317,177.049771 173.467477,176.877397 L175.539371,175.624704 C175.828651,175.449771 175.822677,175.175851 175.529984,175.013717" id="Fill-98" fill="#2B3D54"></path>
                <path d="M167.007488,170.289579 L161.682688,167.337899 C161.389995,167.175765 160.917248,167.183445 160.627115,167.358379 L158.555221,168.611925 C158.271061,168.783445 158.277035,169.058219 158.569728,169.220352 L163.895381,172.172032 C164.187221,172.334165 164.660821,172.325632 164.944981,172.153259 L167.016875,170.900565 C167.306155,170.725632 167.300181,170.451712 167.007488,170.289579" id="Fill-100" fill="#2B3D54"></path>
                <path d="M158.484992,165.56544 L153.160192,162.61376 C152.867499,162.451627 152.394752,162.459307 152.104619,162.63424 L150.032725,163.887787 C149.748565,164.06016 149.754539,164.33408 150.047232,164.496213 L155.372885,167.447893 C155.669845,167.612587 156.138325,167.601493 156.422485,167.429973 L158.494379,166.176427 C158.783659,166.001493 158.782805,165.730133 158.484992,165.56544" id="Fill-102" fill="#2B3D54"></path>
                <path d="M149.967531,160.844203 L144.637611,157.889963 C144.344917,157.727829 143.872171,157.735509 143.582891,157.910443 L141.510997,159.163989 C141.225984,159.335509 141.231957,159.609429 141.524651,159.771563 L146.855424,162.726656 C147.147264,162.888789 147.620011,162.880256 147.905024,162.707883 L149.976917,161.455189 C150.266197,161.280256 150.260224,161.006336 149.967531,160.844203" id="Fill-104" fill="#2B3D54"></path>
                <path d="M141.445035,156.119979 L136.119381,153.168299 C135.822421,153.003605 135.353941,153.013845 135.064661,153.188779 L132.992768,154.442325 C132.708608,154.614699 132.710315,154.886059 133.007275,155.050752 L138.332928,158.002432 C138.624768,158.164565 139.098368,158.156032 139.382528,157.983659 L141.454421,156.730965 C141.743701,156.556032 141.737728,156.282112 141.445035,156.119979" id="Fill-106" fill="#2B3D54"></path>
                <path d="M132.922539,151.39584 L127.597739,148.44416 C127.305045,148.282027 126.832299,148.289707 126.542165,148.46464 L124.470272,149.718187 C124.186112,149.89056 124.192085,150.16448 124.484779,150.326613 L129.810432,153.278293 C130.102272,153.440427 130.575872,153.431893 130.860032,153.260373 L132.931925,152.006827 C133.221205,151.831893 133.215232,151.557973 132.922539,151.39584" id="Fill-108" fill="#2B3D54"></path>
                <path d="M124.399957,146.671701 L119.075157,143.720021 C118.782464,143.557888 118.309717,143.566421 118.019584,143.741355 L115.947691,144.994048 C115.663531,145.166421 115.669504,145.440341 115.962197,145.602475 L121.287851,148.554155 C121.584811,148.718848 122.053291,148.707755 122.337451,148.536235 L124.409344,147.282688 C124.698624,147.107755 124.697771,146.836395 124.399957,146.671701" id="Fill-110" fill="#2B3D54"></path>
                <path d="M115.877888,141.947477 L110.552235,138.995797 C110.260395,138.833664 109.786795,138.842197 109.497515,139.017131 L107.425621,140.269824 C107.140608,140.442197 107.147435,140.716117 107.439275,140.878251 L112.764928,143.829931 C113.061888,143.994624 113.534635,143.986944 113.819648,143.814571 L115.891541,142.561024 C116.180821,142.386091 116.174848,142.112171 115.877888,141.947477" id="Fill-112" fill="#2B3D54"></path>
                <path d="M64.723712,158.070443 L57.2655787,153.936043 C56.9728853,153.773909 56.5044053,153.779883 56.2151253,153.954816 L51.030272,157.089963 C50.746112,157.262336 50.7520853,157.536256 51.0447787,157.698389 L58.502912,161.832789 C58.7956053,161.994923 59.268352,161.986389 59.552512,161.814016 L64.7382187,158.678869 C65.0266453,158.503936 65.0164053,158.232576 64.723712,158.070443" id="Fill-114" fill="#2B3D54"></path>
                <path d="M145.677483,202.944171 L138.219349,198.809771 C137.926656,198.647637 137.458176,198.653611 137.168896,198.828544 L131.984043,201.963691 C131.699883,202.136064 131.705856,202.409984 131.998549,202.571264 L139.456683,206.705664 C139.749376,206.867797 140.222123,206.859264 140.506283,206.687744 L145.691989,203.551744 C145.980416,203.376811 145.970176,203.106304 145.677483,202.944171" id="Fill-116" fill="#2B3D54"></path>
                <path d="M73.246208,162.794581 L67.916288,159.840341 C67.6235947,159.678208 67.1551147,159.683328 66.8658347,159.858261 L61.6809813,162.993408 C61.3968213,163.165781 61.4027947,163.439701 61.695488,163.601835 L67.025408,166.556928 C67.3181013,166.719061 67.790848,166.710528 68.075008,166.538155 L73.2607147,163.403008 C73.5491413,163.228075 73.5389013,162.956715 73.246208,162.794581" id="Fill-118" fill="#2B3D54"></path>
                <path d="M81.7637547,167.516245 L76.4389547,164.564565 C76.1462613,164.402432 75.6777813,164.407552 75.3885013,164.582485 L70.203648,167.717632 C69.919488,167.890005 69.9254613,168.163925 70.2173013,168.326059 L75.5429547,171.277739 C75.840768,171.443285 76.3083947,171.431339 76.5925547,171.259819 L81.7782613,168.123819 C82.066688,167.948885 82.061568,167.680939 81.7637547,167.516245" id="Fill-120" fill="#2B3D54"></path>
                <path d="M83.672064,158.956629 L65.562624,148.918869 C65.270784,148.756736 64.797184,148.765269 64.513024,148.936789 L59.3281707,152.072789 C59.0388907,152.247723 59.049984,152.518229 59.341824,152.680363 L77.451264,162.718976 C77.7439573,162.880256 78.211584,162.875136 78.500864,162.700203 L83.6857173,159.565056 C83.9707307,159.392683 83.9647573,159.118763 83.672064,158.956629" id="Fill-122" fill="#2B3D54"></path>
                <path d="M100.717056,168.404565 L95.3862827,165.450325 C95.0944427,165.288192 94.6208427,165.295872 94.3366827,165.469099 L89.1518293,168.604245 C88.8625493,168.778325 88.8736427,169.049685 89.1654827,169.211819 L94.496256,172.166912 C94.788096,172.329045 95.256576,172.323072 95.545856,172.148139 L100.730709,169.012992 C101.015723,168.840619 101.008896,168.566699 100.717056,168.404565" id="Fill-124" fill="#2B3D54"></path>
                <path d="M92.19456,163.680853 L86.8689067,160.729173 C86.5719467,160.56448 86.1034667,160.57472 85.8193067,160.747093 L80.6344533,163.88224 C80.3451733,164.057173 80.3511467,164.325973 80.6481067,164.490667 L85.97376,167.442347 C86.2656,167.60448 86.73408,167.59936 87.02336,167.424427 L92.2082133,164.288427 C92.4932267,164.116907 92.4864,163.842987 92.19456,163.680853" id="Fill-126" fill="#2B3D54"></path>
                <path d="M117.757099,177.850453 L112.431445,174.898773 C112.139605,174.73664 111.666005,174.74432 111.381845,174.916693 L106.196992,178.05184 C105.907712,178.226773 105.917952,178.498133 106.210645,178.660267 L111.536299,181.611947 C111.828992,181.77408 112.297472,181.76896 112.585899,181.594027 L117.771605,178.458027 C118.055765,178.286507 118.049792,178.012587 117.757099,177.850453" id="Fill-128" fill="#2B3D54"></path>
                <path d="M109.234603,173.126229 L103.908949,170.174549 C103.617109,170.012416 103.143509,170.020096 102.859349,170.192469 L97.674496,173.327616 C97.385216,173.502549 97.395456,173.773909 97.6881493,173.936043 L103.013803,176.887723 C103.310763,177.053269 103.774976,177.044736 104.063403,176.869803 L109.249109,173.734656 C109.533269,173.562283 109.531563,173.290923 109.234603,173.126229" id="Fill-130" fill="#2B3D54"></path>
                <path d="M126.279595,182.574165 L120.953941,179.622485 C120.656981,179.457792 120.188501,179.468885 119.904341,179.640405 L114.719488,182.776405 C114.430208,182.951339 114.436181,183.219285 114.733141,183.383979 L120.058795,186.336512 C120.351488,186.498645 120.819968,186.492672 121.108395,186.317739 L126.294101,183.182592 C126.578261,183.010219 126.572288,182.736299 126.279595,182.574165" id="Fill-132" fill="#2B3D54"></path>
                <path d="M134.802091,187.298304 L129.476437,184.346624 C129.179477,184.181931 128.705877,184.189611 128.421717,184.361984 L123.236864,187.497131 C122.947584,187.672064 122.958677,187.943424 123.255637,188.108117 L128.581291,191.060651 C128.873131,191.222784 129.341611,191.216811 129.630891,191.041877 L134.815744,187.906731 C135.100757,187.734357 135.093931,187.460437 134.802091,187.298304" id="Fill-134" fill="#2B3D54"></path>
                <path d="M143.319552,192.019968 L137.993899,189.068288 C137.702059,188.906155 137.228459,188.913835 136.944299,189.086208 L131.759445,192.221355 C131.470165,192.396288 131.481259,192.667648 131.773099,192.829781 L137.098752,195.781461 C137.395712,195.947008 137.864192,195.941035 138.153472,195.766101 L143.338325,192.630955 C143.623339,192.458581 143.616512,192.184661 143.319552,192.019968" id="Fill-136" fill="#2B3D54"></path>
                <path d="M151.842048,196.743765 L146.516395,193.792085 C146.224555,193.629952 145.750955,193.638485 145.466795,193.810005 L140.281941,196.946005 C139.992661,197.120939 140.002901,197.391445 140.295595,197.553579 L145.621248,200.506112 C145.918208,200.670805 146.382421,200.662272 146.670848,200.487339 L151.856555,197.352192 C152.140715,197.179819 152.139008,196.908459 151.842048,196.743765" id="Fill-138" fill="#2B3D54"></path>
                <path d="M160.364544,201.467904 L155.038891,198.516224 C154.747051,198.354091 154.273451,198.362624 153.989291,198.534144 L148.804437,201.670144 C148.515157,201.845077 148.525397,202.115584 148.818091,202.277717 L154.143744,205.230251 C154.436437,205.392384 154.904917,205.386411 155.193344,205.211477 L160.379051,202.076331 C160.663211,201.903957 160.657237,201.630037 160.364544,201.467904" id="Fill-140" fill="#2B3D54"></path>
                <path d="M168.887125,206.192043 L163.561472,203.240363 C163.264512,203.075669 162.796032,203.085909 162.511872,203.258283 L157.327019,206.393429 C157.037739,206.568363 157.043712,206.837163 157.340672,207.001856 L162.666325,209.954389 C162.959019,210.116523 163.427499,210.110549 163.715925,209.935616 L168.900779,206.800469 C169.185792,206.628096 169.179819,206.354176 168.887125,206.192043" id="Fill-142" fill="#2B3D54"></path>
                <path d="M104.753323,161.025024 L99.4276693,158.073344 C99.1307093,157.908651 98.6579627,157.916331 98.3729493,158.088704 L93.188096,161.223851 C92.898816,161.398784 92.9099093,161.670144 93.2068693,161.834837 L98.5325227,164.787371 C98.825216,164.949504 99.2928427,164.943531 99.5821227,164.768597 L104.766976,161.633451 C105.051989,161.461077 105.046016,161.187157 104.753323,161.025024" id="Fill-144" fill="#2B3D54"></path>
                <path d="M96.2308267,156.3008 L90.9051733,153.34912 C90.6082133,153.184427 90.1397333,153.19552 89.8555733,153.36704 L84.67072,156.50304 C84.38144,156.677973 84.3874133,156.94592 84.6843733,157.110613 L90.0100267,160.063147 C90.30272,160.22528 90.7712,160.219307 91.0596267,160.044373 L96.2453333,156.909227 C96.5294933,156.736853 96.52352,156.462933 96.2308267,156.3008" id="Fill-146" fill="#2B3D54"></path>
                <path d="M121.793365,170.4704 L116.467712,167.51872 C116.175872,167.356587 115.702272,167.36512 115.418112,167.53664 L110.233259,170.67264 C109.943979,170.847573 109.955072,171.11808 110.246912,171.280213 L115.572565,174.232747 C115.869525,174.39744 116.333739,174.388907 116.622165,174.213973 L121.807872,171.078827 C122.092032,170.906453 122.090325,170.635093 121.793365,170.4704" id="Fill-148" fill="#2B3D54"></path>
                <path d="M113.270869,165.746261 L107.945216,162.794581 C107.653376,162.632448 107.179776,162.640981 106.895616,162.812501 L101.710763,165.948501 C101.421483,166.123435 101.432576,166.393941 101.724416,166.556075 L107.050069,169.508608 C107.347029,169.673301 107.815509,169.667328 108.104789,169.492395 L113.289643,166.357248 C113.574656,166.184875 113.567829,165.910955 113.270869,165.746261" id="Fill-150" fill="#2B3D54"></path>
                <path d="M130.315861,175.194624 L124.990208,172.242944 C124.698368,172.080811 124.224768,172.088491 123.940608,172.260864 L118.755755,175.396011 C118.466475,175.570944 118.476715,175.842304 118.769408,176.004437 L124.095061,178.956971 C124.387755,179.118251 124.856235,179.113131 125.144661,178.938197 L130.330368,175.803051 C130.614528,175.630677 130.608555,175.356757 130.315861,175.194624" id="Fill-152" fill="#2B3D54"></path>
                <path d="M138.838357,179.918763 L133.512704,176.967083 C133.215744,176.802389 132.747264,176.812629 132.463104,176.985003 L127.278251,180.120149 C126.988971,180.295083 126.994944,180.563883 127.291904,180.728576 L132.617557,183.680256 C132.910251,183.842389 133.378731,183.837269 133.667157,183.662336 L138.852864,180.526336 C139.137024,180.354816 139.131051,180.080896 138.838357,179.918763" id="Fill-154" fill="#2B3D54"></path>
                <path d="M147.360853,184.642901 L142.030933,181.688661 C141.73824,181.526528 141.265493,181.534208 140.98048,181.706581 L135.795627,184.841728 C135.506347,185.016661 135.51744,185.288021 135.80928,185.450155 L141.140053,188.404395 C141.432747,188.566528 141.901227,188.561408 142.189653,188.386475 L147.37536,185.250475 C147.65952,185.078955 147.653547,184.805035 147.360853,184.642901" id="Fill-156" fill="#2B3D54"></path>
                <path d="M155.878315,189.364139 L150.552661,186.412459 C150.260821,186.250325 149.787221,186.258005 149.503061,186.430379 L144.318208,189.565525 C144.028928,189.740459 144.040021,190.011819 144.331861,190.173952 L149.657515,193.125632 C149.954475,193.291179 150.418688,193.282645 150.707115,193.107712 L155.892821,189.972565 C156.176981,189.800192 156.175275,189.528832 155.878315,189.364139" id="Fill-158" fill="#2B3D54"></path>
                <path d="M164.400811,194.088363 L159.075157,191.136683 C158.783317,190.974549 158.309717,190.982229 158.025557,191.154603 L152.840704,194.289749 C152.551424,194.464683 152.562517,194.736043 152.854357,194.898176 L158.180011,197.849856 C158.472704,198.011989 158.941184,198.006869 159.229611,197.831936 L164.415317,194.695936 C164.699477,194.524416 164.693504,194.250496 164.400811,194.088363" id="Fill-160" fill="#2B3D54"></path>
                <path d="M172.923307,198.812501 L167.597653,195.860821 C167.300693,195.696128 166.832213,195.706368 166.548053,195.878741 L161.3632,199.013888 C161.07392,199.188821 161.079893,199.457621 161.376853,199.622315 L166.702507,202.573995 C166.9952,202.736128 167.46368,202.731008 167.752107,202.556075 L172.937813,199.420075 C173.221973,199.248555 173.216,198.973781 172.923307,198.812501" id="Fill-162" fill="#2B3D54"></path>
                <path d="M181.445803,203.536213 L176.120149,200.584533 C175.823189,200.41984 175.350443,200.42752 175.065429,200.599893 L169.880576,203.73504 C169.591296,203.909973 169.602389,204.181333 169.899349,204.346027 L175.225003,207.29856 C175.517696,207.460693 175.986176,207.45472 176.274603,207.279787 L181.460309,204.14464 C181.744469,203.972267 181.738496,203.698347 181.445803,203.536213" id="Fill-164" fill="#2B3D54"></path>
                <path d="M188.059989,216.819968 L172.078763,207.961515 C171.786923,207.799381 171.313323,207.807915 171.029163,207.980288 L165.844309,211.115435 C165.555029,211.290368 165.566123,211.560875 165.857963,211.723008 L181.839189,220.581461 C182.131883,220.743595 182.600363,220.738475 182.889643,220.563541 L188.074496,217.427541 C188.359509,217.256021 188.352683,216.982101 188.059989,216.819968" id="Fill-166" fill="#2B3D54"></path>
                <path d="M196.357461,211.802112 L184.638635,205.305685 C184.345941,205.143552 183.873195,205.152085 183.588181,205.324459 L178.403328,208.459605 C178.114048,208.634539 178.125141,208.905899 178.416981,209.068032 L190.136661,215.564459 C190.429355,215.726592 190.897835,215.720619 191.186261,215.545685 L196.371968,212.410539 C196.656981,212.238165 196.650155,211.964245 196.357461,211.802112" id="Fill-168" fill="#2B3D54"></path>
                <path d="M87.7083307,151.576661 L73.8604373,143.900928 C73.5685973,143.738795 73.0949973,143.747328 72.8108373,143.918848 L67.625984,147.054848 C67.3358507,147.229781 67.3477973,147.501141 67.6396373,147.663275 L81.4875307,155.339008 C81.780224,155.501141 82.248704,155.495168 82.5371307,155.320235 L87.7228373,152.185088 C88.0069973,152.012715 88.001024,151.738795 87.7083307,151.576661" id="Fill-170" fill="#2B3D54"></path>
                <path d="M110.917888,154.82496 L105.592235,151.87328 C105.300395,151.711147 104.826795,151.718827 104.542635,151.8912 L99.3526613,155.02976 C99.0685013,155.20128 99.0744747,155.476053 99.367168,155.638187 L104.692821,158.589867 C104.989781,158.753707 105.457408,158.743467 105.742421,158.571093 L110.931541,155.432533 C111.216555,155.261013 111.214848,154.989653 110.917888,154.82496" id="Fill-172" fill="#2B3D54"></path>
                <path d="M102.395392,150.100821 L97.0697387,147.149141 C96.7778987,146.987008 96.3042987,146.994688 96.0201387,147.167061 L90.8301653,150.305621 C90.5460053,150.477141 90.5519787,150.751915 90.844672,150.914048 L96.1703253,153.865728 C96.4672853,154.030421 96.940032,154.021888 97.224192,153.850368 L102.414165,150.711808 C102.698325,150.539435 102.692352,150.265515 102.395392,150.100821" id="Fill-174" fill="#2B3D54"></path>
                <path d="M127.962539,164.272896 L122.637739,161.321216 C122.339925,161.156523 121.872299,161.167616 121.587285,161.339136 L116.398165,164.477696 C116.113152,164.650069 116.114859,164.921429 116.411819,165.086123 L121.737472,168.037803 C122.029312,168.199936 122.502912,168.191403 122.787072,168.019883 L127.977045,164.881323 C128.261205,164.708949 128.255232,164.435029 127.962539,164.272896" id="Fill-176" fill="#2B3D54"></path>
                <path d="M119.440384,159.549184 L114.114731,156.597504 C113.822891,156.435371 113.349291,156.443051 113.065131,156.615424 L107.875157,159.753984 C107.590997,159.925504 107.596971,160.199424 107.889664,160.361557 L113.214464,163.314091 C113.507157,163.476224 113.979904,163.467691 114.264917,163.295317 L119.454037,160.156757 C119.739051,159.985237 119.732224,159.711317 119.440384,159.549184" id="Fill-178" fill="#2B3D54"></path>
                <path d="M136.485035,168.99712 L131.155115,166.04288 C130.862421,165.880747 130.389675,165.888427 130.104661,166.0608 L124.915541,169.19936 C124.630528,169.37088 124.637355,169.645653 124.929195,169.807787 L130.259968,172.762027 C130.551808,172.92416 131.025408,172.915627 131.309568,172.743253 L136.499541,169.605547 C136.783701,169.433173 136.777728,169.159253 136.485035,168.99712" id="Fill-180" fill="#2B3D54"></path>
                <path d="M145.002923,173.718784 L139.677269,170.767104 C139.385429,170.604971 138.911829,170.612651 138.627669,170.785024 L133.437696,173.923584 C133.153536,174.095104 133.159509,174.369024 133.452203,174.531157 L138.777856,177.483691 C139.074816,177.647531 139.543296,177.637291 139.827456,177.464917 L145.017429,174.326357 C145.301589,174.154837 145.299883,173.883477 145.002923,173.718784" id="Fill-182" fill="#2B3D54"></path>
                <path d="M153.525419,178.442496 L148.199765,175.490816 C147.907925,175.328683 147.434325,175.337216 147.150165,175.508736 L141.960192,178.647296 C141.676032,178.819669 141.682005,179.093589 141.974699,179.255723 L147.299499,182.207403 C147.592192,182.369536 148.064939,182.361003 148.349952,182.189483 L153.539072,179.050923 C153.824085,178.878549 153.817259,178.604629 153.525419,178.442496" id="Fill-184" fill="#2B3D54"></path>
                <path d="M162.047915,183.166635 L156.722261,180.214955 C156.425301,180.050261 155.956821,180.060501 155.672661,180.232875 L150.482688,183.371435 C150.198528,183.542955 150.199381,183.815168 150.497195,183.979861 L155.821995,186.931541 C156.114688,187.093675 156.587435,187.085141 156.872448,186.912768 L162.061568,183.775061 C162.346581,183.602688 162.339755,183.328768 162.047915,183.166635" id="Fill-186" fill="#2B3D54"></path>
                <path d="M170.570411,187.890859 L165.244757,184.939179 C164.947797,184.774485 164.474197,184.782165 164.190037,184.954539 L159.000064,188.093099 C158.715904,188.264619 158.721877,188.538539 159.018837,188.704085 L164.344491,191.655765 C164.637184,191.817899 165.109931,191.809365 165.394944,191.636992 L170.584064,188.498432 C170.869077,188.326912 170.862251,188.052992 170.570411,187.890859" id="Fill-188" fill="#2B3D54"></path>
                <path d="M179.087957,192.612096 L173.762304,189.660416 C173.470464,189.498283 172.996864,189.506816 172.712704,189.678336 L167.522731,192.816896 C167.238571,192.989269 167.244544,193.263189 167.537237,193.425323 L172.862891,196.377003 C173.159851,196.541696 173.632597,196.533163 173.916757,196.361643 L179.106731,193.223083 C179.390891,193.050709 179.384917,192.776789 179.087957,192.612096" id="Fill-190" fill="#2B3D54"></path>
                <path d="M187.610027,197.336235 L182.285227,194.384555 C181.992533,194.222421 181.519787,194.230101 181.234773,194.402475 L176.045653,197.541035 C175.76064,197.712555 175.767467,197.987328 176.059307,198.149461 L181.38496,201.101141 C181.68192,201.265835 182.1504,201.254741 182.435413,201.082368 L187.624533,197.944661 C187.909547,197.772288 187.90784,197.500928 187.610027,197.336235" id="Fill-192" fill="#2B3D54"></path>
                <path d="M196.132523,202.060459 L190.807723,199.108779 C190.515029,198.946645 190.041429,198.954325 189.757269,199.126699 L184.568149,202.265259 C184.283136,202.436779 184.289963,202.711552 184.581803,202.873685 L189.907456,205.825365 C190.200149,205.987499 190.672896,205.978965 190.957909,205.806592 L196.147029,202.668032 C196.432043,202.496512 196.425216,202.222592 196.132523,202.060459" id="Fill-194" fill="#2B3D54"></path>
                <path d="M204.655019,206.784597 L199.330219,203.832917 C199.032405,203.668224 198.563925,203.678464 198.279765,203.850837 L193.089792,206.989397 C192.805632,207.160917 192.807339,207.432277 193.104299,207.596971 L198.429952,210.549504 C198.722645,210.711637 199.195392,210.703104 199.480405,210.530731 L204.669525,207.392171 C204.954539,207.220651 204.947712,206.946731 204.655019,206.784597" id="Fill-196" fill="#2B3D54"></path>
                <path d="M93.877504,145.379584 L82.157824,138.883157 C81.865984,138.721024 81.392384,138.729557 81.108224,138.901931 L75.919104,142.039637 C75.6340907,142.212011 75.640064,142.485931 75.9327573,142.648064 L87.6524373,149.144491 C87.9442773,149.306624 88.4178773,149.298091 88.7020373,149.125717 L93.8920107,145.987157 C94.1761707,145.815637 94.1701973,145.541717 93.877504,145.379584" id="Fill-198" fill="#2B3D54"></path>
                <path d="M154.195029,207.665408 L148.870229,204.713728 C148.577536,204.551595 148.109056,204.556715 147.819776,204.731648 L142.634923,207.866795 C142.350763,208.039168 142.356736,208.313088 142.649429,208.475221 L147.974229,211.427755 C148.272043,211.592448 148.744789,211.583915 149.028949,211.411541 L154.213803,208.276395 C154.503083,208.101461 154.492843,207.830101 154.195029,207.665408" id="Fill-200" fill="#2B3D54"></path>
                <path d="M162.717525,212.389547 L157.392725,209.437867 C157.100032,209.275733 156.631552,209.280853 156.342272,209.455787 L151.157419,212.590933 C150.873259,212.763307 150.879232,213.037227 151.171925,213.19936 L156.496725,216.15104 C156.794539,216.316587 157.262165,216.305493 157.547179,216.13312 L162.732032,212.99712 C163.020459,212.82304 163.015339,212.55424 162.717525,212.389547" id="Fill-202" fill="#2B3D54"></path>
                <path d="M171.240021,217.113771 L165.914368,214.162091 C165.622528,213.999957 165.154048,214.005077 164.864768,214.180011 L159.679915,217.315157 C159.395755,217.487531 159.401728,217.761451 159.693568,217.923584 L165.019221,220.875264 C165.311915,221.037397 165.784661,221.028864 166.068821,220.857344 L171.254528,217.721344 C171.542955,217.546411 171.532715,217.275904 171.240021,217.113771" id="Fill-204" fill="#2B3D54"></path>
                <path d="M179.762517,221.837483 L174.436864,218.885803 C174.139904,218.721109 173.676544,218.728789 173.387264,218.903723 L168.202411,222.039723 C167.917397,222.211243 167.919104,222.482603 168.216064,222.647296 L173.541717,225.599829 C173.834411,225.761963 174.307157,225.753429 174.591317,225.581056 L179.777024,222.445909 C180.065451,222.270976 180.055211,221.999616 179.762517,221.837483" id="Fill-206" fill="#2B3D54"></path>
                <path d="M92.4191573,173.422507 L84.961024,169.288107 C84.6683307,169.125973 84.200704,169.131947 83.9105707,169.30688 L78.7265707,172.442027 C78.4415573,172.6144 78.4475307,172.88832 78.740224,173.050453 L86.1983573,177.184853 C86.4910507,177.346987 86.9637973,177.338453 87.2488107,177.16608 L92.433664,174.030933 C92.722944,173.856 92.7118507,173.58464 92.4191573,173.422507" id="Fill-208" fill="#2B3D54"></path>
                <path d="M135.02208,197.037483 L95.6117333,175.192149 C95.31904,175.030016 94.85056,175.035136 94.56128,175.210069 L89.3764267,178.346069 C89.0922667,178.517589 89.09824,178.792363 89.3909333,178.954496 L128.80128,200.799829 C129.09824,200.964523 129.570987,200.955989 129.856,200.783616 L135.040853,197.648469 C135.330133,197.473536 135.31904,197.202176 135.02208,197.037483" id="Fill-210" fill="#2B3D54"></path>
                <path d="M104.298752,141.544192 L98.9730987,138.592512 C98.6812587,138.430379 98.2127787,138.435499 97.9234987,138.610432 L92.7386453,141.745579 C92.453632,141.917952 92.4604587,142.191872 92.7522987,142.354005 L98.077952,145.306539 C98.3706453,145.468672 98.843392,145.460139 99.127552,145.287765 L104.313259,142.152619 C104.601685,141.977685 104.591445,141.706325 104.298752,141.544192" id="Fill-212" fill="#2B3D54"></path>
                <path d="M95.776256,136.819968 L90.4506027,133.868288 C90.1587627,133.706155 89.6902827,133.711275 89.4010027,133.886208 L84.2161493,137.022208 C83.931136,137.193728 83.9379627,137.467648 84.2298027,137.629781 L89.555456,140.582315 C89.852416,140.747008 90.320896,140.735915 90.605056,140.563541 L95.7907627,137.428395 C96.0791893,137.253461 96.073216,136.984661 95.776256,136.819968" id="Fill-214" fill="#2B3D54"></path>
                <path d="M121.343744,150.992469 L116.018091,148.040789 C115.721131,147.876096 115.252651,147.881216 114.963371,148.056149 L109.778517,151.191296 C109.494357,151.363669 109.500331,151.637589 109.797291,151.802283 L115.122944,154.753963 C115.415637,154.916096 115.888384,154.907563 116.172544,154.736043 L121.358251,151.600043 C121.646677,151.425109 121.636437,151.154603 121.343744,150.992469" id="Fill-216" fill="#2B3D54"></path>
                <path d="M112.821248,146.268331 L107.495595,143.316651 C107.198635,143.151957 106.735275,143.159637 106.445995,143.334571 L101.261141,146.469717 C100.976128,146.642091 100.977835,146.913451 101.274795,147.078144 L106.600448,150.029824 C106.893141,150.191957 107.365888,150.184277 107.650048,150.011904 L112.835755,146.875904 C113.124181,146.701824 113.113941,146.430464 112.821248,146.268331" id="Fill-218" fill="#2B3D54"></path>
                <path d="M129.861291,155.713792 L124.536491,152.762112 C124.243797,152.599979 123.775317,152.605099 123.486037,152.780032 L118.301184,155.915179 C118.017024,156.087552 118.022997,156.361472 118.315691,156.523605 L123.640491,159.476139 C123.937451,159.640832 124.411051,159.632299 124.695211,159.459925 L129.880064,156.324779 C130.169344,156.149845 130.159104,155.878485 129.861291,155.713792" id="Fill-220" fill="#2B3D54"></path>
                <path d="M138.383787,160.437931 L133.058133,157.486251 C132.766293,157.324117 132.297813,157.329237 132.008533,157.504171 L126.82368,160.639317 C126.53952,160.811691 126.545493,161.085611 126.837333,161.247744 L132.162987,164.199424 C132.459947,164.364971 132.928427,164.353877 133.212587,164.181504 L138.398293,161.045504 C138.68672,160.871424 138.680747,160.602624 138.383787,160.437931" id="Fill-222" fill="#2B3D54"></path>
                <path d="M146.906283,165.162069 L141.580629,162.210389 C141.288789,162.048256 140.820309,162.053376 140.531029,162.228309 L135.346176,165.363456 C135.061163,165.535829 135.067989,165.809749 135.359829,165.971883 L140.685483,168.923563 C140.978176,169.085696 141.450923,169.077163 141.735083,168.905643 L146.920789,165.769643 C147.209216,165.594709 147.198976,165.324203 146.906283,165.162069" id="Fill-224" fill="#2B3D54"></path>
                <path d="M155.428779,169.885867 L150.103125,166.934187 C149.806165,166.769493 149.342805,166.777173 149.053525,166.952107 L143.868672,170.088107 C143.583659,170.259627 143.585365,170.530987 143.882325,170.69568 L149.207979,173.648213 C149.500672,173.810347 149.973419,173.801813 150.257579,173.62944 L155.443285,170.494293 C155.731712,170.31936 155.721472,170.048 155.428779,169.885867" id="Fill-226" fill="#2B3D54"></path>
                <path d="M163.951275,174.610005 L158.621355,171.655765 C158.328661,171.493632 157.860181,171.498752 157.570901,171.673685 L152.386048,174.808832 C152.101888,174.981205 152.107861,175.255125 152.400555,175.417259 L157.730475,178.372352 C158.023168,178.534485 158.495915,178.525952 158.780075,178.353579 L163.965781,175.218432 C164.254208,175.043499 164.243968,174.772139 163.951275,174.610005" id="Fill-228" fill="#2B3D54"></path>
                <path d="M172.468736,179.331669 L167.143936,176.379989 C166.851243,176.217856 166.382763,176.222976 166.093483,176.397909 L160.908629,179.533056 C160.624469,179.705429 160.630443,179.979349 160.922283,180.141483 L166.247936,183.093163 C166.545749,183.257856 167.013376,183.246763 167.297536,183.075243 L172.483243,179.939243 C172.771669,179.764309 172.766549,179.496363 172.468736,179.331669" id="Fill-230" fill="#2B3D54"></path>
                <path d="M180.991232,184.055381 L175.665579,181.103701 C175.373739,180.941568 174.905259,180.946688 174.615979,181.121621 L169.431125,184.257621 C169.146112,184.429141 169.152939,184.703061 169.444779,184.865195 L174.770432,187.817728 C175.063125,187.979861 175.535872,187.971328 175.820032,187.798955 L181.005739,184.663808 C181.294165,184.488875 181.283925,184.217515 180.991232,184.055381" id="Fill-232" fill="#2B3D54"></path>
                <path d="M189.514155,188.779605 L184.188501,185.827925 C183.891541,185.663232 183.428181,185.670912 183.138048,185.845845 L177.954048,188.981845 C177.669035,189.153365 177.670741,189.424725 177.967701,189.589419 L183.292501,192.541952 C183.585195,192.704085 184.057941,192.695552 184.342955,192.523179 L189.527808,189.388032 C189.817088,189.213099 189.805995,188.941739 189.514155,188.779605" id="Fill-234" fill="#2B3D54"></path>
                <path d="M198.036651,193.503744 L192.710997,190.552064 C192.413184,190.387371 191.944704,190.392491 191.655424,190.567424 L186.470571,193.702571 C186.186411,193.874944 186.192384,194.148864 186.490197,194.313557 L191.815851,197.265237 C192.107691,197.427371 192.580437,197.419691 192.865451,197.247317 L198.050304,194.112171 C198.339584,193.937237 198.328491,193.665877 198.036651,193.503744" id="Fill-236" fill="#2B3D54"></path>
                <path d="M212.948309,201.769557 L201.228629,195.273131 C200.935936,195.110997 200.467456,195.116971 200.178176,195.291904 L194.993323,198.427051 C194.709163,198.599424 194.715136,198.872491 195.007829,199.034624 L206.727509,205.531051 C207.020203,205.693184 207.492096,205.685504 207.777109,205.513131 L212.962816,202.377131 C213.251243,202.203051 213.241003,201.931691 212.948309,201.769557" id="Fill-238" fill="#2B3D54"></path>
                <path d="M215.184981,83.9087787 L213.385301,81.6124587 C202.491648,67.7270187 189.771861,56.5270187 176.590421,49.2207787 C163.414101,41.9170987 150.033835,38.648832 137.900288,39.770112 L135.894955,39.9578453 L133.934848,40.1344853 L133.724928,42.675712 L132.152235,61.706752 C130.908928,76.754432 133.485995,93.3116587 139.605248,109.583872 C145.581141,125.470379 154.495915,140.002645 165.387861,151.602005 L166.664448,152.958805 L167.908608,154.285739 L169.257728,154.396672 L170.636715,154.511019 C182.402475,155.471019 192.833621,151.661739 200.796928,143.502165 C208.951381,135.142912 213.919488,122.767872 215.162795,107.720192 L216.734635,88.689152 L216.945408,86.147072 L215.184981,83.9087787 Z" id="Fill-240" fill="#B3D3EA"></path>
                <path d="M199.900843,92.1691307 L198.101163,89.8728107 C187.207509,75.9873707 174.487723,64.7873707 161.306283,57.4811307 C148.129963,50.1774507 134.749696,46.909184 122.616149,48.030464 L120.610816,48.2181973 L118.650709,48.3948373 L118.440789,50.936064 L116.868096,69.967104 C115.624789,85.014784 118.201856,101.572011 124.321109,117.844224 C130.297003,133.730731 139.211776,148.262997 150.103723,159.862357 L151.380309,161.219157 L152.624469,162.546091 L153.973589,162.657024 L155.352576,162.771371 C167.118336,163.731371 177.549483,159.922091 185.511936,151.762517 C193.666389,143.403264 198.635349,131.028224 199.878656,115.980544 L201.450496,96.949504 L201.661269,94.407424 L199.900843,92.1691307 Z" id="Fill-242" fill="#FFFFFF"></path>
                <path d="M160.953771,61.7471147 C148.366251,54.7702613 135.590997,51.651328 124.007851,52.7231147 L122.002517,52.9099947 L120.429824,71.941888 C119.258197,86.1149013 121.684224,101.705301 127.445931,117.026901 C133.071957,131.997781 141.470464,145.678421 151.726677,156.607061 L153.003264,157.963861 L154.381397,158.079061 C165.466197,158.979328 175.291477,155.400448 182.794837,147.706795 C190.473131,139.834795 195.150251,128.182528 196.321877,114.009515 L197.894571,94.9776213 L196.094037,92.680448 C185.695317,79.4239147 173.540437,68.7248213 160.953771,61.7471147 M128.196864,70.149888 L128.854784,62.1925547 C138.778197,61.7334613 149.576277,64.5801813 160.230997,70.4869547 C170.887424,76.393728 181.193984,85.2453547 190.175317,96.182528 L189.517397,104.140715 C179.655424,96.2149547 169.477717,89.321728 159.148117,83.5958613 C148.823637,77.873408 138.447957,73.372928 128.196864,70.149888 M128.125184,92.5567147 C127.551744,87.970048 127.348651,83.4550613 127.524437,79.0800213 C137.749931,82.1801813 148.111104,86.618368 158.426197,92.3357013 C168.741291,98.053888 178.895104,104.987221 188.716117,112.998315 C188.185344,117.177941 187.285931,121.081088 186.042624,124.661675 C176.701184,117.288021 167.087531,110.847061 157.342464,105.445461 C147.598251,100.043861 137.813077,95.7328213 128.125184,92.5567147 M134.634411,117.397248 C134.363904,116.724821 134.094251,116.040448 133.840811,115.357781 C132.200704,110.997248 130.873771,106.617941 129.860011,102.255701 C138.735531,105.251755 147.695531,109.237675 156.620544,114.185301 C165.545557,119.132928 174.350251,124.992768 182.921984,131.668395 C181.308331,134.573995 179.405397,137.163008 177.224277,139.406421 C176.879531,139.756288 176.530517,140.097621 176.177237,140.425301 C169.397504,135.548501 162.501717,131.154688 155.536811,127.294208 C148.572757,123.433728 141.586517,120.133035 134.634411,117.397248 M153.780651,148.551595 C148.490837,142.678955 143.798357,135.952981 139.878997,128.662955 C144.859051,130.821888 149.844224,133.278635 154.814891,136.034048 C159.790677,138.792021 164.727211,141.835861 169.607424,145.141675 C164.879104,147.637675 159.539797,148.803328 153.780651,148.551595" id="Fill-244" fill="#2580E5"></path>
            </g>
        </g>
    </g>
</svg>