<?xml version="1.0" encoding="UTF-8"?>
<svg width="256px" height="256px" viewBox="0 0 256 256" version="1.1" xmlns="http://www.w3.org/2000/svg" xmlns:xlink="http://www.w3.org/1999/xlink">
    <!-- Generator: Sketch 52.2 (67145) - http://www.bohemiancoding.com/sketch -->
    <title>Icon - Globe</title>
    <desc>Created with Sketch.</desc>
    <defs>
        <polygon id="path-1" points="0.588032 0.800256 192.853333 0.800256 192.853333 68.2221227 0.588032 68.2221227"></polygon>
        <path d="M0,109.226667 C0,169.550507 48.9028267,218.453333 109.226667,218.453333 C169.55136,218.453333 218.453333,169.550507 218.453333,109.226667 C218.453333,48.9019733 169.55136,0 109.226667,0 C48.9028267,0 0,48.9019733 0,109.226667" id="path-3"></path>
        <path d="M0,109.226667 C0,169.550507 48.9028267,218.453333 109.226667,218.453333 C169.55136,218.453333 218.453333,169.550507 218.453333,109.226667 C218.453333,48.9019733 169.55136,0 109.226667,0 C48.9028267,0 0,48.9019733 0,109.226667" id="path-5"></path>
        <path d="M0,109.226667 C0,169.550507 48.9028267,218.453333 109.226667,218.453333 C169.55136,218.453333 218.453333,169.550507 218.453333,109.226667 C218.453333,48.9019733 169.55136,0 109.226667,0 C48.9028267,0 0,48.9019733 0,109.226667" id="path-7"></path>
        <path d="M0,109.226667 C0,169.550507 48.9028267,218.453333 109.226667,218.453333 C169.55136,218.453333 218.453333,169.550507 218.453333,109.226667 C218.453333,48.9019733 169.55136,0 109.226667,0 C48.9028267,0 0,48.9019733 0,109.226667" id="path-9"></path>
        <path d="M0,109.226667 C0,169.550507 48.9028267,218.453333 109.226667,218.453333 C169.55136,218.453333 218.453333,169.550507 218.453333,109.226667 C218.453333,48.9019733 169.55136,0 109.226667,0 C48.9028267,0 0,48.9019733 0,109.226667" id="path-11"></path>
    </defs>
    <g id="Icon---Globe" stroke="none" stroke-width="1" fill="none" fill-rule="evenodd">
        <g>
            <polygon id="Fill-1" points="0 256 256 256 256 0 0 0"></polygon>
            <g id="Group-21" transform="translate(5.120000, 18.773333)">
                <path d="M41.820416,139.593728 C19.750656,139.593728 4.65604267,134.474581 0.894549333,124.075008 C-2.16977067,115.602261 2.67374933,104.787115 14.899456,92.799488 L17.2887893,95.236608 C6.08708267,106.220715 1.528576,115.790848 4.10478933,122.914475 C7.50020267,132.303701 23.634176,137.061035 48.376576,135.969621 C74.119936,134.832981 106.342656,127.680341 139.108096,115.830101 C163.698603,106.936661 186.596096,96.096768 205.325056,84.4829013 L207.124736,87.3833813 C188.196949,99.1209813 165.078443,110.067541 140.269483,119.040341 C102.615296,132.658688 67.4980693,139.593728 41.820416,139.593728" id="Fill-2" fill="#2580E5"></path>
                <path d="M211.517525,85.10336 C211.390379,82.2779733 208.997632,80.0917333 206.173099,80.21888 C203.347712,80.3460267 201.161472,82.7387733 201.288619,85.56416 C201.415765,88.3886933 203.808512,90.5757867 206.633045,90.44864 C209.457579,90.3214933 211.644672,87.9278933 211.517525,85.10336" id="Fill-4" fill="#2580E5"></path>
                <path d="M33.7850027,182.764971 C24.825856,182.764971 18.190336,180.340651 14.509056,175.357184 C9.156096,168.110677 10.7142827,156.363691 19.014656,141.386837 L22.0004693,143.040597 C14.3955627,156.763051 12.7546027,167.236864 17.2542293,173.329664 C26.8670293,186.342997 64.3351893,177.557931 108.369749,151.964757 L110.084949,154.915584 C78.7565227,173.124011 51.6512427,182.764971 33.7850027,182.764971" id="Fill-6" fill="#2580E5"></path>
                <path d="M113.493333,153.6 C113.493333,150.772907 111.200427,148.48 108.373333,148.48 C105.54624,148.48 103.253333,150.772907 103.253333,153.6 C103.253333,156.427093 105.54624,158.72 108.373333,158.72 C111.200427,158.72 113.493333,156.427093 113.493333,153.6" id="Fill-8" fill="#2580E5"></path>
                <path d="M200.914176,184.889173 L200.340736,181.52448 C215.805696,178.888533 225.008896,173.626027 226.954496,166.30528 C229.518763,156.655787 218.976683,143.545173 198.029909,130.335573 C176.233216,116.59008 145.683883,104.091307 112.010496,95.1432533 C86.7390293,88.4266667 61.7483093,84.2743467 39.7382827,83.136 L39.9149227,79.7269333 C62.157056,80.87808 87.3901227,85.0679467 112.886869,91.8434133 C184.844203,110.967467 236.398336,144.059733 230.253483,167.182507 C227.938389,175.889067 217.793963,182.011733 200.914176,184.889173" id="Fill-10" fill="#2580E5"></path>
                <path d="M44.3733333,81.0666667 C44.3733333,78.2395733 42.0804267,75.9466667 39.2533333,75.9466667 C36.42624,75.9466667 34.1333333,78.2395733 34.1333333,81.0666667 C34.1333333,83.89376 36.42624,86.1866667 39.2533333,86.1866667 C42.0804267,86.1866667 44.3733333,83.89376 44.3733333,81.0666667" id="Fill-12" fill="#2580E5"></path>
                <g id="Group-16" transform="translate(58.026667, 52.053333)">
                    <mask id="mask-2" fill="white">
                        <use xlink:href="#path-1"></use>
                    </mask>
                    <g id="Clip-15"></g>
                    <path d="M169.008725,68.2221227 L167.590485,65.1168427 C181.884672,58.5862827 189.440085,51.1230293 189.440085,43.5351893 C189.440085,33.532416 175.860139,23.5518293 152.183552,16.152576 C127.546112,8.45294933 94.7567787,4.21358933 59.8554453,4.21358933 C39.1919787,4.21358933 19.4304853,5.67534933 1.11880533,8.55876267 L0.588032,5.18724267 C19.073792,2.27566933 39.0153387,0.800256 59.8554453,0.800256 C134.433365,0.800256 192.853419,19.5718827 192.853419,43.5351893 C192.853419,52.558336 184.607659,61.0950827 169.008725,68.2221227" id="Fill-14" fill="#2580E5" mask="url(#mask-2)"></path>
                </g>
                <path d="M64,58.88 C64,56.0529067 61.7070933,53.76 58.88,53.76 C56.0529067,53.76 53.76,56.0529067 53.76,58.88 C53.76,61.7070933 56.0529067,64 58.88,64 C61.7070933,64 64,61.7070933 64,58.88" id="Fill-17" fill="#2580E5"></path>
                <path d="M232.106667,109.226667 C232.106667,169.550507 183.20384,218.453333 122.88,218.453333 C62.55616,218.453333 13.6533333,169.550507 13.6533333,109.226667 C13.6533333,48.9028267 62.55616,0 122.88,0 C183.20384,0 232.106667,48.9028267 232.106667,109.226667" id="Fill-19" fill="#D4EAFF"></path>
            </g>
            <g id="Group-37" transform="translate(18.773333, 18.773333)">
                <g id="Group-24">
                    <mask id="mask-4" fill="white">
                        <use xlink:href="#path-3"></use>
                    </mask>
                    <g id="Clip-23"></g>
                    <path d="M68.3295573,2.84416 C68.349184,8.34474667 71.2923307,13.3546667 74.145024,18.05824 C73.318144,19.2529067 71.3452373,18.49344 70.069504,19.18976 C68.282624,20.1642667 69.032704,23.0203733 67.8772907,24.6954667 C66.8575573,26.1717333 64.7404373,26.2621867 62.9518507,26.1256533 C61.595904,26.0215467 60.1682773,25.84576 59.081984,25.0282667 C57.9948373,24.20992 57.4393173,22.53312 58.2644907,21.4519467 C59.1263573,20.3204267 61.2997973,19.50976 60.548864,18.3022933 C58.7713707,16.9156267 55.828224,17.4532267 54.6565973,19.3792 C53.3637973,21.5048533 54.1701973,24.5504 52.5599573,26.4456533 C51.2569173,27.9808 48.972544,28.0712533 46.9620907,28.18816 C43.5828907,28.38528 40.0014507,29.1072 37.5976107,31.49056 C35.1937707,33.8747733 34.6706773,38.3573333 37.3074773,40.4804267 C38.8084907,41.6878933 41.049344,41.98912 42.091264,43.6087467 C43.207424,45.3435733 42.5836373,48.1058133 44.3141973,49.2279467 C44.730624,47.02208 45.7733973,44.9390933 47.290624,43.28448 C48.417024,42.0565333 49.8412373,40.99072 50.3899307,39.41632 C51.1852373,37.1319467 49.858304,34.5915733 50.3327573,32.2193067 C50.733824,30.2148267 52.5377707,28.57472 54.5704107,28.3665067 C56.6047573,28.15744 58.7039573,29.3973333 59.5026773,31.2789333 C59.8107307,32.0034133 59.9634773,32.8388267 60.536064,33.37984 C62.4296107,35.1658667 65.1329707,31.70816 67.734784,31.7994667 C70.241024,35.0293333 72.7481173,38.2592 75.2552107,41.4890667 C75.6818773,42.0386133 76.126464,42.6359467 76.162304,43.33056 C76.2228907,44.4987733 75.143424,45.37344 74.1544107,45.9972267 C71.697664,47.5477333 69.0984107,48.8712533 66.3993173,49.9464533 C64.0722773,50.8731733 61.1060907,52.75904 62.0882773,55.0638933 C62.9620907,57.11616 66.608384,57.5812267 66.398464,59.8016 C59.972864,61.50912 54.1138773,65.29024 49.912064,70.44352 C48.8539307,71.7405867 47.8905173,73.1357867 47.2581973,74.68544 C46.6105173,76.27008 46.3169707,77.99552 45.5225173,79.5118933 C44.039424,82.3466667 41.028864,84.0712533 39.2539307,86.7336533 C36.848384,90.3415467 37.0668373,95.0306133 37.3970773,99.3544533 C37.547264,101.318827 37.6044373,104.983893 36.295424,104.983893 C34.9864107,104.983893 34.7662507,101.810347 33.6961707,100.42368 C30.3826773,96.1271467 22.9800107,96.8260267 19.5410773,101.02272 C16.102144,105.219413 16.2523307,111.537493 18.685184,116.386987 C19.2901973,117.5936 20.4200107,118.90944 21.718784,118.539947 C22.832384,118.22336 23.2283307,116.898987 23.7684907,115.874987 C24.8385707,113.844907 27.1553707,112.541867 29.4457173,112.682667 C27.931904,115.446613 28.971264,119.317333 31.6660907,120.950613 C33.0194773,121.77152 34.746624,122.125653 35.6665173,123.414187 C36.1989973,124.16 36.361984,125.097813 36.6239573,125.975893 C37.6078507,129.27232 40.2565973,132.02432 43.512064,133.1328 C45.019904,133.645653 47.0696107,134.41792 46.7922773,135.985493 C43.7441707,138.431147 39.1668907,138.76224 35.7979307,136.782507 C33.5835307,135.48032 31.9801173,133.364907 29.9892907,131.74016 C26.155264,128.612693 21.1342507,127.47264 16.542464,125.628587 C11.9515307,123.785387 7.27867733,120.640853 6.21969067,115.807573 C5.58395733,112.905387 6.100224,109.25056 3.65627733,107.559253 C3.89777067,109.504 3.00859733,113.736533 1.70641067,115.2 C-1.915136,103.466667 -4.68420267,88.7645867 -1.85284267,76.81536 C-0.501162667,71.1082667 2.137344,65.7954133 4.91323733,60.62848 C9.425664,52.22912 14.3980373,44.0081067 20.6853973,36.8384 C28.0095573,28.4868267 36.9541973,21.7429333 45.828864,15.06304 C49.3906773,12.3818667 52.9695573,9.6896 56.8923307,7.57248 C60.6265173,5.55605333 64.649984,4.07808 68.8005973,3.19744" id="Fill-22" fill="#2B3D54" mask="url(#mask-4)"></path>
                </g>
                <g id="Group-27">
                    <mask id="mask-6" fill="white">
                        <use xlink:href="#path-5"></use>
                    </mask>
                    <g id="Clip-26"></g>
                    <path d="M46.854144,132.800853 C52.7148373,131.11296 58.7001173,129.85856 64.7451307,129.0496 C66.0677973,128.872107 67.4254507,128.718507 68.7250773,129.02144 C70.787584,129.501867 72.410624,131.052373 74.2956373,132.018347 C77.2549973,133.536427 80.7195307,133.556907 84.022784,133.94688 C87.3260373,134.336853 90.8793173,135.320747 92.7916373,138.04288 C93.9726507,139.723947 94.4018773,141.917013 95.8772907,143.3472 C96.4942507,143.945387 97.2562773,144.369493 98.023424,144.75776 C102.157824,146.853547 106.702677,148.1344 111.322624,148.506453 C115.382784,148.83328 120.289451,148.8896 122.364757,152.39424 C124.481877,155.969707 122.034517,160.372907 120.204971,164.10368 C118.778197,167.01184 117.714091,170.098347 117.043371,173.267627 C116.506624,175.808853 116.161877,178.53952 114.516651,180.54912 C112.581291,182.91456 109.183317,183.82336 107.530411,186.394453 C105.651371,189.31968 106.682197,193.363627 105.057451,196.438187 C104.029184,198.383787 102.092971,199.650133 100.577451,201.245867 C99.0619307,202.8416 97.9227307,205.259093 98.9586773,207.20128 C99.316224,207.872853 99.9272107,208.493227 99.866624,209.25184 C99.7701973,210.454187 98.2213973,210.814293 97.2562773,211.536213 C95.913984,212.53888 95.6520107,214.511787 96.1273173,216.11776 C96.6017707,217.724587 97.6556373,219.083093 98.571264,220.485973 C99.1387307,221.354667 99.672064,222.452907 99.2121173,223.38304 C98.753024,224.310613 97.544704,224.55808 96.5096107,224.529067 C92.7771307,224.424107 89.365504,222.17984 86.9855573,219.3024 C84.606464,216.42496 83.0969173,212.944213 81.6180907,209.51552 C78.710784,202.771627 75.8034773,196.027733 72.8961707,189.28384 C71.435264,185.896107 69.8181973,182.316373 66.735104,180.289707 C65.1649707,179.258027 63.322624,178.711893 61.7064107,177.752747 C59.275264,176.30976 57.4866773,174.019413 55.757824,171.782827 L47.2193707,160.73728 C46.1851307,159.400107 45.131264,158.02624 44.614144,156.416 C43.467264,152.843947 45.1756373,149.001387 45.0305707,145.25184 C44.926464,142.5792 43.8760107,139.974827 44.0543573,137.3056 C44.2335573,134.636373 46.4684373,131.74272 49.0693973,132.366507" id="Fill-25" fill="#2B3D54" mask="url(#mask-6)"></path>
                </g>
                <g id="Group-30">
                    <mask id="mask-8" fill="white">
                        <use xlink:href="#path-7"></use>
                    </mask>
                    <g id="Clip-29"></g>
                    <path d="M182.300416,198.232917 C181.179989,195.352917 181.570816,192.122197 182.177536,189.092864 C185.206016,173.968384 193.202603,159.375531 191.362816,144.061611 C190.890923,140.136277 189.768789,136.223744 190.198869,132.294144 C190.451456,129.982464 191.175936,127.399424 189.823403,125.507584 C189.243136,124.696917 188.354816,124.159317 187.444309,123.753131 C185.094229,122.705237 182.421589,122.398037 179.894869,122.885291 C177.866496,123.276971 175.966123,124.157611 173.974443,124.708011 C163.786496,127.524011 152.013909,119.819264 150.517163,109.354837 C150.075136,106.266624 150.335403,102.860117 148.505856,100.332544 C147.885483,99.4766507 147.044949,98.760704 146.633643,97.787904 C145.921963,96.1051307 146.677163,94.196224 147.424683,92.5288107 C150.561536,85.535744 153.698389,78.5426773 156.835243,71.5487573 C157.846443,69.295104 158.993323,66.8895573 161.158229,65.6991573 C162.642176,64.8833707 164.399189,64.7647573 166.012843,64.2476373 C168.289536,63.5188907 170.229163,62.0161707 172.389803,60.9947307 C174.550443,59.9732907 177.242709,59.4860373 179.244629,60.7916373 C180.317269,61.4905173 181.034069,62.6024107 181.814869,63.6161707 C184.753749,67.4356907 189.022123,70.211584 193.706069,71.348224 C194.479189,70.403584 194.987776,69.243904 195.156736,68.0347307 C198.543616,68.711424 201.979989,69.136384 205.429163,69.305344 C206.035029,69.3343573 206.680149,69.3471573 207.202389,69.039104 C207.836416,68.6636373 208.136789,67.8913707 208.183723,67.1566507 C208.405589,63.637504 204.180736,61.6296107 200.671829,61.284864 C197.162923,60.9401173 193.075456,61.005824 190.866176,58.2580907 C190.151936,57.3689173 189.720149,56.2561707 188.884736,55.4804907 C188.048469,54.705664 186.526123,54.452224 185.869909,55.3849173 C186.614016,56.4788907 187.389696,57.6812373 187.309483,59.001344 C187.229269,60.322304 185.808469,61.5980373 184.624043,61.0075307 C184.106923,60.7506773 183.785216,60.227584 183.497643,59.7266773 C181.793536,56.756224 180.249003,53.5365973 177.521749,51.4638507 C174.795349,49.391104 170.405803,48.9883307 168.234923,51.6370773 C165.923243,54.4564907 167.258709,58.998784 165.164629,61.983744 C163.703723,64.0684373 160.811776,64.820224 158.334549,64.233984 C155.857323,63.6485973 153.773483,61.9393707 152.177749,59.956224 C150.426709,57.7810773 149.121109,54.936064 149.829376,52.2344107 C150.536789,49.5336107 154.014976,47.6008107 156.288256,49.222144 C155.620096,45.8284373 153.822976,42.6668373 151.248469,40.3560107 C156.597163,38.9608107 158.685269,32.2911573 158.111829,26.7931307 C157.896789,24.7348907 157.115136,22.334464 155.117483,21.794304 C153.700949,21.4120107 152.175189,22.1484373 150.743296,21.8292907 C147.667029,21.1449173 147.575723,16.8526507 146.044843,14.0980907 C144.986709,12.1925973 143.071829,10.9313707 141.715883,9.224704 C140.360789,7.51889067 139.702016,4.79931733 141.277269,3.29403733 C142.701483,1.93297067 145.007189,2.384384 146.886229,2.97659733 C178.772736,13.023744 205.238016,38.902784 215.996843,70.557184 C218.945109,79.230464 220.768683,88.259584 221.880576,97.3535573 C223.065003,107.036331 223.443883,116.893184 221.863509,126.518784 C219.935829,138.257237 215.156309,149.322411 210.016683,160.049664 C203.252309,174.170624 195.590229,188.217344 184.207616,198.969344 C183.755349,199.396011 183.084629,199.840597 182.570069,199.491584 C182.055509,199.142571 183.054763,198.231211 183.123029,198.849024" id="Fill-28" fill="#2B3D54" mask="url(#mask-8)"></path>
                </g>
                <g id="Group-33">
                    <mask id="mask-10" fill="white">
                        <use xlink:href="#path-9"></use>
                    </mask>
                    <g id="Clip-32"></g>
                    <path d="M142.897067,22.4154453 C143.717973,24.0879787 145.016747,25.522432 146.59968,26.5046187 C148.251733,27.529472 150.177707,28.0585387 151.805867,29.119232 C153.435733,30.1807787 154.793387,32.076032 154.33344,33.9644587 C154.155093,34.6957653 153.723307,35.340032 153.241173,35.9168853 C152.629333,36.648192 151.7376,37.3538987 150.815147,37.1132587 C149.86112,36.8649387 149.449813,35.7812053 148.8832,34.973952 C148.31744,34.167552 146.936747,33.6444587 146.462293,34.508032 C146.308693,34.7887787 146.31808,35.1318187 146.188373,35.4236587 C145.883733,36.110592 144.980907,36.251392 144.229973,36.2394453 C142.335573,36.2087253 140.105813,35.519232 139.584427,33.699072 C138.95552,31.5068587 141.24928,29.4614187 141.207467,27.1821653 C141.191253,26.2767787 140.802133,25.412352 140.769707,24.5078187 C140.73728,23.6032853 141.28768,22.540032 142.193067,22.540032" id="Fill-31" fill="#2B3D54" mask="url(#mask-10)"></path>
                </g>
                <g id="Group-36">
                    <mask id="mask-12" fill="white">
                        <use xlink:href="#path-11"></use>
                    </mask>
                    <g id="Clip-35"></g>
                    <path d="M76.7453867,1.58250667 C80.08704,2.69781333 81.7373867,6.49685333 82.1691733,9.99296 C82.60096,13.48992 82.2340267,17.12512 83.3578667,20.4642133 C84.4817067,23.8033067 87.8813867,26.8189867 91.2648533,25.83424 C94.2481067,24.9655467 95.6279467,21.60768 96.5546667,18.6414933 C96.8098133,17.82656 97.0683733,16.9937067 97.57184,16.3042133 C98.12224,15.5515733 98.9243733,15.0250667 99.7282133,14.55232 C102.02112,13.2023467 104.482133,12.1399467 107.037867,11.3966933 C108.42624,10.9930667 109.978453,10.5902933 110.764373,9.37514667 C111.71328,7.90826667 111.104,5.97205333 110.426453,4.36096 C109.538133,2.24981333 108.50048,0.08064 106.661547,-1.28384 C104.533333,-2.86336 101.718187,-3.09034667 99.0685867,-3.14154667 C92.9467733,-3.25930667 86.8130133,-2.74901333 80.7953067,-1.62090667 C78.96576,-1.27872 76.6626133,-0.224853333 76.9629867,1.61152" id="Fill-34" fill="#2B3D54" mask="url(#mask-12)"></path>
                </g>
            </g>
            <g id="Group-54" transform="translate(5.973333, 70.826667)" fill="#2580E5">
                <path d="M40.9670827,87.5403947 C18.8973227,87.5403947 3.80270933,82.421248 0.041216,72.0216747 C0.853589333,71.6803413 2.560256,70.827008 3.251456,70.8611413 C6.64686933,80.250368 22.7808427,85.0077013 47.5232427,83.916288 C73.2666027,82.779648 105.489323,75.627008 138.254763,63.776768 C162.845269,54.883328 185.742763,44.0434347 204.471723,32.429568 L206.271403,35.330048 C187.343616,47.067648 164.225109,58.014208 139.416149,66.987008 C101.761963,80.6053547 66.644736,87.5403947 40.9670827,87.5403947" id="Fill-38"></path>
                <path d="M210.664192,33.0500267 C210.537045,30.22464 208.144299,28.0384 205.319765,28.1655467 C202.494379,28.2926933 200.308139,30.68544 200.435285,33.5108267 C200.562432,36.33536 202.955179,38.5224533 205.779712,38.3953067 C208.604245,38.26816 210.791339,35.87456 210.664192,33.0500267" id="Fill-40"></path>
                <path d="M32.9316693,130.711637 C23.9725227,130.711637 17.3370027,128.287317 13.6557227,123.303851 C14.506496,121.173077 14.506496,122.026411 16.400896,121.276331 C26.013696,134.289664 63.481856,125.504597 107.516416,99.911424 L109.231616,102.862251 C77.9031893,121.070677 50.7979093,130.711637 32.9316693,130.711637" id="Fill-42"></path>
                <path d="M112.64,101.546667 C112.64,98.7195733 110.347093,96.4266667 107.52,96.4266667 C104.692907,96.4266667 102.4,98.7195733 102.4,101.546667 C102.4,104.37376 104.692907,106.666667 107.52,106.666667 C110.347093,106.666667 112.64,104.37376 112.64,101.546667" id="Fill-44"></path>
                <path d="M226.100821,114.252117 C228.665088,104.601771 218.123008,91.4920107 197.176235,78.2824107 C175.380395,64.5369173 144.831061,52.038144 111.156821,43.0892373 C85.886208,36.373504 60.8946347,32.221184 38.884608,31.0828373 L39.061248,27.6737707 C61.3033813,28.8249173 86.5373013,33.014784 112.034048,39.7902507 C183.991381,58.9134507 235.544661,92.0065707 229.399808,115.128491 C227.839915,115.200171 226.986581,114.346837 226.100821,114.252117" id="Fill-46"></path>
                <path d="M43.52,29.0133333 C43.52,26.18624 41.2270933,23.8933333 38.4,23.8933333 C35.5729067,23.8933333 33.28,26.18624 33.28,29.0133333 C33.28,31.8404267 35.5729067,34.1333333 38.4,34.1333333 C41.2270933,34.1333333 43.52,31.8404267 43.52,29.0133333" id="Fill-48"></path>
                <path d="M63.1466667,6.82666667 C63.1466667,3.99957333 60.85376,1.70666667 58.0266667,1.70666667 C55.1995733,1.70666667 52.9066667,3.99957333 52.9066667,6.82666667 C52.9066667,9.65376 55.1995733,11.9466667 58.0266667,11.9466667 C60.85376,11.9466667 63.1466667,9.65376 63.1466667,6.82666667" id="Fill-50"></path>
                <path d="M250.02624,43.52 C250.001493,19.56352 191.59168,0.799573333 117.02912,0.799573333 C96.18816,0.799573333 76.2474667,2.27584 57.7608533,5.18741333 L58.29248,8.55893333 C76.60416,5.67552 96.3656533,4.21290667 117.02912,4.21290667 C151.930453,4.21290667 184.719787,8.45312 209.356373,16.1527467 C233.021867,23.5477333 246.599253,33.5223467 246.612907,43.52 L250.02624,43.52 Z" id="Fill-52"></path>
            </g>
        </g>
    </g>
</svg>