<?xml version="1.0" encoding="UTF-8"?>
<svg width="24px" height="24px" viewBox="0 0 24 24" version="1.1" xmlns="http://www.w3.org/2000/svg" xmlns:xlink="http://www.w3.org/1999/xlink">
    <!-- Generator: Sketch 52.2 (67145) - http://www.bohemiancoding.com/sketch -->
    <title>TW</title>
    <desc>Created with Sketch.</desc>
    <g id="TW" stroke="none" stroke-width="1" fill="none" fill-rule="evenodd">
        <g id="Twitter_Logo_WhiteOnBlue">
            <g id="Dark_Blue">
                <rect id="Rectangle" x="-7.10542736e-15" y="-7.10542736e-15" width="24" height="24"></rect>
            </g>
            <g id="Logo_FIXED" transform="translate(2.000000, 3.000000)" fill="#FFFFFF">
                <path d="M6.2896,17.1272 C13.8368,17.1272 17.9648,10.8744 17.9648,5.452 C17.9648,5.2744 17.9648,5.0976 17.9528,4.9216 C18.7558651,4.34072868 19.4490844,3.62150352 20,2.7976 C19.2511032,3.12944142 18.4566634,3.34706292 17.6432,3.4432 C18.4997952,2.93038565 19.1408988,2.12381759 19.4472,1.1736 C18.641726,1.65156425 17.7605169,1.98840962 16.8416,2.1696 C15.5696662,0.817115423 13.5485755,0.486090067 11.9116394,1.36214394 C10.2747034,2.23819782 9.42901999,4.10346058 9.8488,5.912 C6.54951659,5.74659963 3.47558062,4.18825862 1.392,1.6248 C0.302898205,3.49971578 0.859190307,5.89828758 2.6624,7.1024 C2.00939296,7.08304604 1.3706235,6.90689054 0.8,6.5888 C0.8,6.6056 0.8,6.6232 0.8,6.6408 C0.800534506,8.59407438 2.17740119,10.2764281 4.092,10.6632 C3.48789568,10.827952 2.85406447,10.8520354 2.2392,10.7336 C2.77675834,12.4051383 4.31725965,13.5502271 6.0728,13.5832 C4.61978803,14.7251456 2.82484761,15.3450622 0.9768,15.3432 C0.650322855,15.3425732 0.324163252,15.322806 0,15.284 C1.87650876,16.4882212 4.05993072,17.1269735 6.2896,17.124" id="Path"></path>
            </g>
        </g>
    </g>
</svg>