<?xml version="1.0" encoding="UTF-8"?>
<svg width="64px" height="64px" viewBox="0 0 64 64" version="1.1" xmlns="http://www.w3.org/2000/svg" xmlns:xlink="http://www.w3.org/1999/xlink">
    <!-- Generator: Sketch 52.2 (67145) - http://www.bohemiancoding.com/sketch -->
    <title>Help Icon - Troubleshooting</title>
    <desc>Created with Sketch.</desc>
    <defs>
        <polygon id="path-1" points="0.0002 0.0004 60.99995 0.0004 60.99995 61 0.0002 61"></polygon>
    </defs>
    <g id="Help-Icon---Troubleshooting" stroke="none" stroke-width="1" fill="none" fill-rule="evenodd">
        <g id="Group-5">
            <polygon id="Fill-1" points="0 64 64 64 64 0 0 0"></polygon>
            <g id="Group-4" transform="translate(3.000000, 3.000000)">
                <mask id="mask-2" fill="white">
                    <use xlink:href="#path-1"></use>
                </mask>
                <g id="Clip-3"></g>
                <path d="M42.2082,15.2734 C38.5312,11.7384 33.7842,9.9734 29.0362,9.9734 C27.1892,9.9734 25.3432,10.2404 23.5592,10.7734 C22.8682,10.9804 22.6482,11.8564 23.1582,12.3664 L33.7402,22.9484 C33.9792,23.1874 34.0742,23.5374 33.9872,23.8644 L32.0192,31.3154 C31.9322,31.6464 31.6732,31.9054 31.3422,31.9924 L23.8912,33.9604 C23.8112,33.9814 23.7292,33.9924 23.6482,33.9924 C23.3982,33.9924 23.1562,33.8944 22.9752,33.7134 L12.3932,23.1314 C12.2022,22.9404 11.9602,22.8514 11.7212,22.8514 C11.3212,22.8514 10.9292,23.1004 10.8002,23.5334 C8.8612,30.0184 10.4452,37.3314 15.5662,42.4534 C19.2822,46.1694 24.1532,48.0264 29.0232,48.0264 C30.5812,48.0264 32.1342,47.8124 33.6542,47.4324 L39.1462,52.9244 C36.0262,54.2544 32.6002,55.0004 29.0002,55.0004 C14.6632,55.0004 3.0002,43.3354 3.0002,29.0004 C3.0002,14.6634 14.6632,3.0004 29.0002,3.0004 C43.3362,3.0004 55.0002,14.6634 55.0002,29.0004 C55.0002,32.6004 54.2572,36.0294 52.9272,39.1494 L47.4382,33.6614 C49.0232,27.2324 47.2392,20.1114 42.2082,15.2734 M40.9582,39.6994 C37.9112,43.0854 33.5612,45.0264 29.0232,45.0264 C24.7412,45.0264 20.7162,43.3594 17.6882,40.3324 C14.3972,37.0414 12.7462,32.5434 13.0292,28.0094 L20.8542,35.8354 C21.6002,36.5814 22.5922,36.9924 23.6482,36.9924 C23.9882,36.9924 24.3282,36.9484 24.6572,36.8614 L32.1082,34.8924 C33.4802,34.5304 34.5572,33.4534 34.9192,32.0824 L36.8882,24.6294 C37.2462,23.2754 36.8532,21.8184 35.8612,20.8274 L28.0392,13.0034 C28.3702,12.9834 28.7032,12.9734 29.0362,12.9734 C33.1962,12.9734 37.1362,14.5584 40.1292,17.4364 C46.2972,23.3674 46.6682,33.3544 40.9582,39.6994 M60.5612,46.7824 L55.2042,41.4264 C56.9942,37.6594 58.0002,33.4484 58.0002,29.0004 C58.0002,12.9834 45.0162,0.0004 29.0002,0.0004 C12.9832,0.0004 0.0002,12.9834 0.0002,29.0004 C0.0002,45.0164 12.9832,58.0004 29.0002,58.0004 C33.4482,58.0004 37.6582,56.9934 41.4252,55.2044 L46.7822,60.5604 C47.0752,60.8534 47.4592,61.0004 47.8432,61.0004 C48.2272,61.0004 48.6102,60.8534 48.9032,60.5604 C49.4892,59.9744 49.4892,59.0254 48.9032,58.4394 L36.8162,46.3524 C39.1622,45.2994 41.3422,43.7574 43.1882,41.7064 C44.5252,40.2204 45.5702,38.5634 46.3482,36.8134 L58.4392,48.9034 C59.0252,49.4894 59.9752,49.4894 60.5612,48.9034 C61.1462,48.3174 61.1462,47.3684 60.5612,46.7824" id="Fill-2" fill="#2580E5" mask="url(#mask-2)"></path>
            </g>
        </g>
    </g>
</svg>