<?xml version="1.0" encoding="UTF-8"?>
<svg width="64px" height="64px" viewBox="0 0 64 64" version="1.1" xmlns="http://www.w3.org/2000/svg" xmlns:xlink="http://www.w3.org/1999/xlink">
    <!-- Generator: Sketch 52.2 (67145) - http://www.bohemiancoding.com/sketch -->
    <title>Help Icon - Help Center</title>
    <desc>Created with Sketch.</desc>
    <defs>
        <polygon id="path-1" points="0.0002 0 62 0 62 55.5879601 0.0002 55.5879601"></polygon>
    </defs>
    <g id="Help-Icon---Help-Center" stroke="none" stroke-width="1" fill="none" fill-rule="evenodd">
        <g id="Group-10">
            <polygon id="Fill-1" points="0 64 64 64 64 0 0 0"></polygon>
            <g id="Group-9" transform="translate(2.000000, 7.000000)">
                <g id="Group-4">
                    <mask id="mask-2" fill="white">
                        <use xlink:href="#path-1"></use>
                    </mask>
                    <g id="Clip-3"></g>
                    <path d="M59.0002,45 C59.0002,45.553 58.5522,46 58.0002,46 L55.0002,46 L52.0002,46 L52.0002,49 L52.0002,49.758 L49.1212,46.879 L48.2422,46 L47.0002,46 L28.0002,46 C27.4472,46 27.0002,45.553 27.0002,45 L27.0002,40 L50.0002,40 C52.2092,40 54.0002,38.209 54.0002,36 L54.0002,22 L58.0002,22 C58.5522,22 59.0002,22.447 59.0002,23 L59.0002,45 Z M17.8402,37 L16.9812,37.78 L11.0002,43.219 L11.0002,40 L11.0002,37 L8.0002,37 L4.0002,37 C3.4482,37 3.0002,36.552 3.0002,36 L3.0002,4 C3.0002,3.448 3.4482,3 4.0002,3 L50.0002,3 C50.5512,3 51.0002,3.448 51.0002,4 L51.0002,36 C51.0002,36.552 50.5512,37 50.0002,37 L19.0002,37 L17.8402,37 Z M58.0002,19 L54.0002,19 L54.0002,4 C54.0002,1.791 52.2092,0 50.0002,0 L4.0002,0 C1.7912,0 0.0002,1.791 0.0002,4 L0.0002,36 C0.0002,38.209 1.7912,40 4.0002,40 L8.0002,40 L8.0002,47.739 C8.0002,48.607 9.0302,49.063 9.6732,48.479 L19.0002,40 L24.0002,40 L24.0002,45 C24.0002,47.209 25.7912,49 28.0002,49 L47.0002,49 L53.2932,55.293 C53.9232,55.923 55.0002,55.477 55.0002,54.586 L55.0002,49 L58.0002,49 C60.2092,49 62.0002,47.209 62.0002,45 L62.0002,23 C62.0002,20.791 60.2092,19 58.0002,19 Z" id="Fill-2" fill="#2580E5" mask="url(#mask-2)"></path>
                </g>
                <path d="M27.0002,28 C25.8962,28 25.0002,28.896 25.0002,30 C25.0002,31.104 25.8962,32 27.0002,32 C28.1042,32 29.0002,31.104 29.0002,30 C29.0002,28.896 28.1042,28 27.0002,28" id="Fill-5" fill="#2580E5"></path>
                <path d="M27.0002,8.5 C23.2072,8.5 20.5502,11.083 20.2322,15.08 L23.2232,15.318 C23.4162,12.892 24.7932,11.5 27.0002,11.5 C28.9302,11.5 30.5002,13.07 30.5002,15 C30.5002,16.242 30.0142,16.721 28.9132,17.684 C27.4732,18.944 25.5002,20.672 25.5002,25.123 L28.5002,25.123 C28.5002,22.032 29.6072,21.063 30.8902,19.94 C32.0532,18.923 33.5002,17.655 33.5002,15 C33.5002,11.416 30.5842,8.5 27.0002,8.5" id="Fill-7" fill="#2580E5"></path>
            </g>
        </g>
    </g>
</svg>