<?xml version="1.0" encoding="UTF-8"?>
<svg width="24px" height="24px" viewBox="0 0 24 24" version="1.1" xmlns="http://www.w3.org/2000/svg" xmlns:xlink="http://www.w3.org/1999/xlink">
    <!-- Generator: Sketch 52.2 (67145) - http://www.bohemiancoding.com/sketch -->
    <title>Menu Icon - Settings</title>
    <desc>Created with Sketch.</desc>
    <g id="Menu-Icon---Settings" stroke="none" stroke-width="1" fill="none" fill-rule="evenodd">
        <g id="Group-7">
            <polygon id="Fill-1" points="0 24 24 24 24 0 0 0"></polygon>
            <g id="Group-6" transform="translate(1.500000, 1.500000)" fill="#182638">
                <path d="M9.7207,19.1848 C10.2177,19.2268 10.7172,19.2268 11.2142,19.1848 L11.7027,16.8253 L14.0652,15.8458 L16.0817,17.1698 C16.4642,16.8473 16.8172,16.4943 17.1372,16.1133 L15.8142,14.0988 L16.7922,11.7358 L19.1537,11.2473 C19.1747,10.9998 19.1852,10.7498 19.1852,10.5003 C19.1852,10.2533 19.1742,10.0038 19.1532,9.7538 L16.7927,9.2653 L15.8127,6.9013 L17.1372,4.8868 C16.8157,4.5058 16.4627,4.1528 16.0802,3.8308 L14.0657,5.1538 L11.7027,4.1758 L11.2142,1.8143 C10.7187,1.7723 10.2197,1.7723 9.7207,1.8148 L9.2322,4.1758 L6.8682,5.1538 L4.8542,3.8308 C4.4727,4.1523 4.1197,4.5053 3.7982,4.8873 L5.1212,6.9013 L4.1427,9.2653 L1.7817,9.7538 C1.7607,10.0018 1.7502,10.2513 1.7502,10.5003 C1.7502,10.7488 1.7607,10.9983 1.7817,11.2473 L4.1427,11.7358 L5.1212,14.0988 L3.7982,16.1133 C4.1192,16.4953 4.4722,16.8483 4.8542,17.1698 L6.8682,15.8458 L9.2322,16.8253 L9.7207,19.1848 Z M10.4677,20.7163 C9.9737,20.7163 9.4797,20.6813 8.9892,20.6108 L8.4687,20.5353 L7.9242,17.9068 L7.0282,17.5358 L4.7862,19.0093 L4.3652,18.6953 C3.5692,18.1023 2.8657,17.3978 2.2727,16.6018 L1.9592,16.1808 L2.0642,16.0208 L2.7752,16.0208 L2.0642,16.0208 L2.7752,16.0208 L2.0642,16.0208 L3.4317,13.9388 L3.0607,13.0438 L0.4322,12.4998 L0.3567,11.9793 C0.2857,11.4913 0.2502,10.9938 0.2502,10.5003 C0.2502,10.0053 0.2857,9.5078 0.3567,9.0213 L0.4322,8.5013 L3.0607,7.9573 L3.4317,7.0613 L1.9587,4.8193 L2.2727,4.3978 C2.8662,3.6018 3.5697,2.8983 4.3652,2.3058 L4.7862,1.9918 L7.0282,3.4648 L7.9242,3.0938 L8.4682,0.4648 L8.9887,0.3898 C9.9732,0.2468 10.9687,0.2468 11.9472,0.3898 L12.4667,0.4653 L13.0107,3.0938 L13.9062,3.4648 L16.1477,1.9918 L16.5687,2.3053 C17.3667,2.8993 18.0712,3.6038 18.6627,4.3983 L18.9762,4.8198 L17.5022,7.0608 L17.8742,7.9573 L20.5037,8.5013 L20.5787,9.0223 C20.6492,9.5143 20.6852,10.0113 20.6852,10.5003 C20.6852,10.9973 20.6492,11.4948 20.5782,11.9803 L20.5022,12.4998 L17.8742,13.0438 L17.5032,13.9388 L18.9757,16.1803 L18.6632,16.6013 C18.0737,17.3943 17.3702,18.0988 16.5717,18.6953 L16.1502,19.0093 L13.9062,17.5358 L13.0107,17.9068 L12.4667,20.5353 L11.9457,20.6108 C11.4552,20.6813 10.9612,20.7163 10.4677,20.7163 Z" id="Fill-2"></path>
                <path d="M10.5,8.25 C9.2595,8.25 8.25,9.2595 8.25,10.5 C8.25,11.7405 9.2595,12.75 10.5,12.75 C11.7405,12.75 12.75,11.7405 12.75,10.5 C12.75,9.2595 11.7405,8.25 10.5,8.25 M10.5,14.25 C8.432,14.25 6.75,12.568 6.75,10.5 C6.75,8.432 8.432,6.75 10.5,6.75 C12.568,6.75 14.25,8.432 14.25,10.5 C14.25,12.568 12.568,14.25 10.5,14.25" id="Fill-4"></path>
            </g>
        </g>
    </g>
</svg>