<?xml version="1.0" encoding="UTF-8"?>
<svg width="256px" height="256px" viewBox="0 0 256 256" version="1.1" xmlns="http://www.w3.org/2000/svg" xmlns:xlink="http://www.w3.org/1999/xlink">
    <!-- Generator: Sketch 52.2 (67145) - http://www.bohemiancoding.com/sketch -->
    <title>Icon - Websites</title>
    <desc>Created with Sketch.</desc>
    <g id="Icon---Websites" stroke="none" stroke-width="1" fill="none" fill-rule="evenodd">
        <g id="Group-39">
            <polygon id="Fill-1" points="0 256 256 256 256 0 0 0"></polygon>
            <g id="Group-38" transform="translate(17.066667, 5.973333)">
                <path d="M219.116629,86.2216533 L71.408896,0.942933333 C70.0742827,0.172373333 68.9862827,0.791893333 68.982016,2.33216 L68.6014293,136.58112 C68.5971627,138.121387 69.6774827,139.992747 71.012096,140.76416 L218.719829,226.04288 C220.059563,226.816 221.147563,226.19648 221.152683,224.656213 L221.532416,90.4072533 C221.537536,88.86784 220.456363,86.9956267 219.116629,86.2216533" id="Fill-2" fill="#2B3D54"></path>
                <path d="M78.0491947,11.0470827 C77.046528,10.4685227 76.2315947,10.9387093 76.2290347,12.0907093 C76.2256213,13.2427093 77.0354347,14.6438827 78.037248,15.223296 C79.0390613,15.801856 79.8591147,15.341056 79.862528,14.189056 C79.8659413,13.037056 79.0518613,11.6256427 78.0491947,11.0470827" id="Fill-4" fill="#FF6157"></path>
                <path d="M84.101632,14.54208 C83.0989653,13.96352 82.2848853,14.4337067 82.281472,15.5857067 C82.2780587,16.7377067 83.087872,18.13888 84.0896853,18.71744 C85.092352,19.296 85.9124053,18.8352 85.9158187,17.6832 C85.919232,16.5320533 85.1042987,15.12064 84.101632,14.54208" id="Fill-6" fill="#F3C868"></path>
                <path d="M90.155008,18.0366507 C89.1523413,17.4580907 88.3382613,17.9282773 88.334848,19.0802773 C88.3314347,20.2322773 89.141248,21.6334507 90.1430613,22.212864 C91.150848,22.793984 91.9657813,22.3297707 91.9683413,21.178624 C91.9717547,20.026624 91.1627947,18.618624 90.155008,18.0366507" id="Fill-8" fill="#2ACB42"></path>
                <path d="M184.984149,94.7642027 L37.276416,9.48548267 C35.9366827,8.71150933 34.849536,9.33188267 34.844416,10.8653227 L34.4638293,145.114283 C34.4595627,146.654549 35.5398827,148.525909 36.8804693,149.299883 L184.587349,234.578603 C185.922816,235.350016 187.009963,234.729643 187.015083,233.189376 L187.394816,98.940416 C187.399936,97.406976 186.318763,95.5347627 184.984149,94.7642027" id="Fill-10" fill="#D4EAFF"></path>
                <path d="M43.9166293,19.5899733 C42.9139627,19.0114133 42.0939093,19.4722133 42.090496,20.62336 C42.0870827,21.7762133 42.9028693,23.1808 43.9046827,23.75936 C44.9073493,24.33792 45.7214293,23.8737067 45.7248427,22.7217067 C45.728256,21.5697067 44.919296,20.1685333 43.9166293,19.5899733" id="Fill-12" fill="#FF6157"></path>
                <path d="M49.9700053,23.084544 C48.9673387,22.505984 48.1524053,22.9701973 48.148992,24.121344 C48.146432,25.273344 48.9562453,26.6753707 49.9580587,27.2539307 C50.9607253,27.8324907 51.7748053,27.3691307 51.7782187,26.2162773 C51.781632,25.0651307 50.972672,23.663104 49.9700053,23.084544" id="Fill-14" fill="#F3C868"></path>
                <path d="M56.022528,26.5792 C55.0198613,26.00064 54.2057813,26.4648533 54.202368,27.6168533 C54.1989547,28.768 55.008768,30.1700267 56.0105813,30.7485867 C57.013248,31.3271467 57.827328,30.8637867 57.8307413,29.7109333 C57.8341547,28.5597867 57.0251947,27.15776 56.022528,26.5792" id="Fill-16" fill="#2ACB42"></path>
                <path d="M7.85749333,128.527104 C7.96672,128.716544 8.11776,128.882091 8.28416,128.977664 C8.11776,128.882091 7.96672,128.716544 7.85749333,128.527104 C7.74826667,128.337664 7.68085333,128.124331 7.68170667,127.934037 C7.68085333,128.124331 7.74826667,128.337664 7.85749333,128.527104 M8.30890667,37.0753707 C8.16469333,37.0625707 8.04864,37.1291307 7.98549333,37.2596907 C8.04864,37.1291307 8.16469333,37.0625707 8.30890667,37.0753707 M150.848853,103.294037 L3.14197333,18.0153173 C1.80650667,17.243904 0.71936,17.8642773 0.715093333,19.3977173 L0.334506667,153.652651 C0.33024,155.186944 1.40970667,157.059157 2.74517333,157.829717 L150.452907,243.108437 C151.79264,243.882411 152.879787,243.262037 152.884907,241.728597 L153.26464,107.472811 C153.26976,105.939371 152.18944,104.067157 150.848853,103.294037" id="Fill-18" fill="#FFFFFF"></path>
                <path d="M9.78167467,28.1191253 C8.779008,27.5405653 7.96407467,28.0047787 7.96151467,29.1559253 C7.95810133,30.3079253 8.76791467,31.709952 9.769728,32.288512 C10.7715413,32.867072 11.5915947,32.406272 11.595008,31.254272 C11.5984213,30.102272 10.7843413,28.6976853 9.78167467,28.1191253" id="Fill-20" fill="#FF6157"></path>
                <path d="M15.8341973,31.6137813 C14.8315307,31.0352213 14.0174507,31.4994347 14.0140373,32.6514347 C14.010624,33.8025813 14.8204373,35.204608 15.8222507,35.783168 C16.8308907,36.3651413 17.6449707,35.900928 17.648384,34.748928 C17.6517973,33.596928 16.8428373,32.1957547 15.8341973,31.6137813" id="Fill-22" fill="#F3C868"></path>
                <path d="M21.8925227,35.11168 C20.884736,34.5297067 20.070656,34.99392 20.0672427,36.14592 C20.0638293,37.29792 20.8736427,38.6990933 21.880576,39.2810667 C22.8832427,39.8596267 23.698176,39.3962667 23.700736,38.2434133 C23.7041493,37.0922667 22.8951893,35.69024 21.8925227,35.11168" id="Fill-24" fill="#2ACB42"></path>
                <path d="M108.760832,192.562944 L8.268032,134.543104 C7.93608533,134.351104 7.66216533,134.500437 7.661312,134.889557 L7.653632,137.668864 C7.65277867,138.057131 7.92413867,138.520491 8.25693867,138.713344 L108.748885,196.732331 C109.081685,196.924331 109.354752,196.774997 109.355605,196.386731 L109.364139,193.607424 C109.364992,193.219157 109.093632,192.754944 108.760832,192.562944" id="Fill-26" fill="#FFE8E7"></path>
                <path d="M108.733355,202.297941 L8.24055467,144.278101 C7.908608,144.086955 7.634688,144.242261 7.63383467,144.624555 L7.62615467,147.409835 C7.62530133,147.792128 7.89666133,148.262315 8.22946133,148.454315 L108.721408,206.474155 C109.054208,206.665301 109.327275,206.509995 109.328128,206.127701 L109.335808,203.342421 C109.337515,202.960128 109.066155,202.489941 108.733355,202.297941" id="Fill-28" fill="#FFE8E7"></path>
                <path d="M84.4883627,198.057045 L8.21316267,154.019925 C7.881216,153.827072 7.607296,153.983232 7.60644267,154.365525 L7.59876267,157.144832 C7.59790933,157.533099 7.86926933,158.003285 8.201216,158.195285 L84.476416,202.233259 C84.814336,202.427819 85.0822827,202.269099 85.083136,201.880832 L85.090816,199.101525 C85.0925227,198.719232 84.8262827,198.252459 84.4883627,198.057045" id="Fill-30" fill="#FFE8E7"></path>
                <path d="M145.079125,213.531221 L114.813952,196.057515 C114.476032,195.862101 114.208085,196.014848 114.207232,196.403115 L114.144085,218.658901 C114.143232,219.047168 114.409472,219.514795 114.746539,219.709355 L145.011712,237.183061 C145.349632,237.377621 145.617579,237.218901 145.618432,236.830635 L145.681579,214.574848 C145.682432,214.187435 145.417045,213.726635 145.079125,213.531221" id="Fill-32" fill="#FFE8E7"></path>
                <path d="M145.355008,116.143787 L8.54434133,37.15584 C8.21154133,36.96384 7.939328,37.12 7.93762133,37.50144 L7.68162133,127.93344 C7.67991467,128.315733 7.95127467,128.78592 8.28407467,128.97792 L145.094741,207.965867 C145.432661,208.160427 145.700608,208.001707 145.701461,207.619413 L145.958315,117.187413 C145.959168,116.805973 145.692928,116.3392 145.355008,116.143787" id="Fill-34" fill="#FF8782"></path>
                <path d="M67.3124693,100.859136 C66.9958827,100.676523 66.7031893,100.800256 66.702336,101.203029 L66.615296,132.185856 C66.6135893,132.590336 66.9037227,133.050283 67.2211627,133.232896 C67.321856,133.290923 67.4251093,133.321643 67.5223893,133.312256 L90.912256,131.302656 C91.316736,131.266816 91.3184427,130.596949 90.9156693,130.094336 L67.6145493,101.127936 C67.516416,101.006763 67.4131627,100.917163 67.3124693,100.859136" id="Fill-36" fill="#FFFFFF"></path>
            </g>
        </g>
    </g>
</svg>