<?xml version="1.0" encoding="UTF-8"?>
<svg width="16px" height="16px" viewBox="0 0 16 16" version="1.1" xmlns="http://www.w3.org/2000/svg" xmlns:xlink="http://www.w3.org/1999/xlink">
    <!-- Generator: Sketch 52.2 (67145) - http://www.bohemiancoding.com/sketch -->
    <title>Personal Information Protected</title>
    <desc>Created with Sketch.</desc>
    <g id="Personal-Information-Protected" stroke="none" stroke-width="1" fill="none" fill-rule="evenodd">
        <g>
            <polygon id="Fill-1" points="0 16 16 16 16 0 0 0"></polygon>
            <g id="Group-7" transform="translate(2.000000, 0.000000)" fill="#2580E5">
                <path d="M1,6 L1,5 C1,2.238 3.238,3.28626015e-14 6,3.28626015e-14 C8.762,3.28626015e-14 11,2.238 11,5 L11,6 L12,6 L12,14 L0,14 L0,6 L1,6 Z M2.667,6 L9.333,6 L9.333,5 C9.333,3.162 7.838,1.667 6,1.667 C4.162,1.667 2.667,3.162 2.667,5 L2.667,6 Z M5.25442592,11.667 L6.74557408,11.667 C6.9038522,11.4901451 7,11.2564726 7,11 L7,9 C7,8.447 6.553,8 6,8 C5.447,8 5,8.447 5,9 L5,11 C5,11.2564726 5.0961478,11.4901451 5.25442592,11.667 Z" id="Combined-Shape"></path>
            </g>
        </g>
    </g>
</svg>