<?xml version="1.0" encoding="UTF-8"?>
<svg width="60px" height="60px" viewBox="0 0 60 60" version="1.1" xmlns="http://www.w3.org/2000/svg" xmlns:xlink="http://www.w3.org/1999/xlink">
    <!-- Generator: Sketch 52.2 (67145) - http://www.bohemiancoding.com/sketch -->
    <title>SafeLine VPN Icon</title>
    <desc>Created with Sketch.</desc>
    <g id="SafeLine-VPN-Icon" stroke="none" stroke-width="1" fill="none" fill-rule="evenodd">
        <g>
            <polygon id="Fill-1" points="0 60 60 60 60 0 0 0"></polygon>
            <path d="M30,53.1166929 C26.1008571,51.4624071 22.5602143,49.1414786 19.5085714,46.25955 C22.9870714,45.9211929 26.4889286,45.7499786 30,45.7499786 C33.5110714,45.7499786 37.0129286,45.9211929 40.4914286,46.25955 C37.4397857,49.1414786 33.8991429,51.4624071 30,53.1166929 Z M30,27.7499786 C23.1207857,27.7499786 16.2743571,28.3761214 9.55885714,29.6104071 C8.9175,27.2091214 8.52942857,24.7334786 8.40364286,22.2158357 C15.4776429,20.7694071 22.719,20.0356929 30,20.0356929 C37.281,20.0356929 44.5223571,20.7694071 51.5963571,22.2158357 C51.4705714,24.7334786 51.0825,27.2091214 50.4411429,29.6104071 C43.7256429,28.3761214 36.8792143,27.7499786 30,27.7499786 Z M44.6620714,41.5589786 C39.8153571,40.9268357 34.9157143,40.6071214 30,40.6071214 C25.0842857,40.6071214 20.1846429,40.9268357 15.3379286,41.5589786 C15.1176429,41.2619786 14.9005714,40.96155 14.6886429,40.6568357 C13.3395,38.7158357 12.1990714,36.6638357 11.2722857,34.5278357 C17.43,33.4431214 23.7002143,32.8928357 30,32.8928357 C36.2997857,32.8928357 42.57,33.4431214 48.7277143,34.5278357 C47.8009286,36.6638357 46.6605,38.7158357 45.3113571,40.6568357 C45.0994286,40.96155 44.8823571,41.2619786 44.6620714,41.5589786 Z M30,7.17855 C37.5214286,7.17855 44.9706429,8.94426429 51.6428571,12.2974071 L51.6428571,16.9812643 C44.5431429,15.5956929 37.29,14.8928357 30,14.8928357 C22.71,14.8928357 15.4568571,15.5956929 8.35714286,16.9812643 L8.35714286,12.2974071 C15.0293571,8.94426429 22.4785714,7.17855 30,7.17855 Z M55.4421429,8.48097857 C47.6828571,4.26426429 38.8851429,2.03569286 30,2.03569286 C21.1148571,2.03569286 12.3171429,4.26426429 4.55785714,8.48097857 L3.21428571,9.21126429 L3.21428571,20.4106929 C3.21428571,28.7513357 5.72185714,36.7673357 10.4659286,43.5923357 C15.0998571,50.25855 21.5305714,55.3403357 29.0629286,58.28805 L30,58.6549071 L30.9370714,58.28805 C38.4694286,55.3403357 44.9001429,50.25855 49.5340714,43.5923357 C54.2781429,36.7673357 56.7857143,28.7513357 56.7857143,20.4106929 L56.7857143,9.21126429 L55.4421429,8.48097857 Z" id="Fill-2" fill="#2580E5"></path>
        </g>
    </g>
</svg>