<?xml version="1.0" encoding="UTF-8"?>
<svg width="24px" height="24px" viewBox="0 0 24 24" version="1.1" xmlns="http://www.w3.org/2000/svg" xmlns:xlink="http://www.w3.org/1999/xlink">
    <!-- Generator: Sketch 52.2 (67145) - http://www.bohemiancoding.com/sketch -->
    <title>Menu Icon - Upgrade</title>
    <desc>Created with Sketch.</desc>
    <g id="Menu-Icon---Upgrade" stroke="none" stroke-width="1" fill="none" fill-rule="evenodd">
        <g id="Group-5">
            <polygon id="Fill-1" points="0 24 24 24 24 0 0 0"></polygon>
            <path d="M12,16.32595 C12.1325,16.32595 12.265,16.36245 12.3815,16.43545 L17.049,19.36595 L15.704,14.02195 C15.637,13.75445 15.7285,13.47245 15.94,13.29595 L20.169,9.76295 L14.5345,9.38045 C14.343,9.36745 14.176,9.24645 14.104,9.06795 L12,3.82745 L9.9465,8.94145 C9.844,9.19695 9.604,9.37145 9.3295,9.38995 L3.831,9.76295 L8.06,13.29595 C8.2715,13.47245 8.363,13.75445 8.296,14.02195 L6.951,19.36595 L11.6185,16.43545 C11.735,16.36245 11.8675,16.32595 12,16.32595 M18.1805,21.64045 C18.0485,21.64045 17.916,21.60445 17.799,21.53095 L12,17.89045 L6.201,21.53095 C5.9535,21.68645 5.635,21.67595 5.398,21.50345 C5.161,21.33145 5.0525,21.03245 5.124,20.74845 L6.7945,14.10795 L1.54,9.71845 C1.315,9.53045 1.2275,9.22445 1.3175,8.94595 C1.408,8.66745 1.659,8.47195 1.9515,8.45195 L8.783,7.98895 L11.334,1.63495 C11.4435,1.36295 11.707,1.18495 12,1.18495 C12.293,1.18495 12.5565,1.36295 12.666,1.63495 L15.217,7.98895 L22.0485,8.45195 C22.341,8.47195 22.592,8.66745 22.6825,8.94595 C22.7725,9.22445 22.685,9.53045 22.46,9.71845 L17.2055,14.10795 L18.876,20.74845 C18.9475,21.03245 18.839,21.33145 18.602,21.50345 C18.477,21.59495 18.3285,21.64045 18.1805,21.64045" id="Fill-3" fill="#2580E5"></path>
        </g>
    </g>
</svg>