<?xml version="1.0" encoding="UTF-8"?>
<svg width="24px" height="24px" viewBox="0 0 24 24" version="1.1" xmlns="http://www.w3.org/2000/svg" xmlns:xlink="http://www.w3.org/1999/xlink">
    <!-- Generator: Sketch 52.2 (67145) - http://www.bohemiancoding.com/sketch -->
    <title>Menu Icon - Help</title>
    <desc>Created with Sketch.</desc>
    <g id="Menu-Icon---Help" stroke="none" stroke-width="1" fill="none" fill-rule="evenodd">
        <g id="Group-9">
            <polygon id="Fill-1" points="0 24 24 24 24 0 0 0"></polygon>
            <g id="Group-8" transform="translate(1.500000, 1.500000)" fill="#182638">
                <path d="M14.1758,17.21875 C14.2748,17.21875 14.3738,17.23825 14.4668,17.27775 L17.5943,18.59425 L16.4168,15.79775 C16.3113,15.54775 16.3493,15.26075 16.5153,15.04675 C17.6503,13.58425 18.2498,11.83925 18.2498,9.99975 C18.2498,5.45075 14.5493,1.75025 9.9998,1.75025 C5.4508,1.75025 1.7498,5.45075 1.7498,9.99975 C1.7498,14.54925 5.4508,18.25025 9.9998,18.25025 C11.3453,18.25025 12.6328,17.93175 13.8273,17.30475 C13.9363,17.24775 14.0558,17.21875 14.1758,17.21875 M18.9998,20.74975 C18.9018,20.74975 18.8028,20.73075 18.7088,20.69125 L14.2033,18.79375 C12.8943,19.42025 11.4488,19.74975 9.9998,19.74975 C4.6238,19.74975 0.2498,15.37625 0.2498,9.99975 C0.2498,4.62375 4.6238,0.24975 9.9998,0.24975 C15.3763,0.24975 19.7498,4.62375 19.7498,9.99975 C19.7498,12.02725 19.1343,13.95725 17.9653,15.60925 L19.6913,19.70875 C19.8098,19.98975 19.7458,20.31475 19.5303,20.53025 C19.3868,20.67375 19.1953,20.74975 18.9998,20.74975" id="Fill-2"></path>
                <path d="M10,12.75 C9.5855,12.75 9.25,12.4145 9.25,12 C9.25,10.835 10.018,9.9905 10.695,9.2455 C11.2375,8.6485 11.75,8.085 11.75,7.5 C11.75,6.5515 10.9485,5.75 10,5.75 C9.035,5.75 8.25,6.535 8.25,7.5 C8.25,7.9145 7.9145,8.25 7.5,8.25 C7.0855,8.25 6.75,7.9145 6.75,7.5 C6.75,5.708 8.208,4.25 10,4.25 C11.7615,4.25 13.25,5.7385 13.25,7.5 C13.25,8.665 12.482,9.5095 11.805,10.2545 C11.2625,10.8515 10.75,11.415 10.75,12 C10.75,12.4145 10.4145,12.75 10,12.75" id="Fill-4"></path>
                <path d="M11,15 C11,14.448 10.552,14 10,14 C9.448,14 9,14.448 9,15 C9,15.552 9.448,16 10,16 C10.552,16 11,15.552 11,15" id="Fill-6"></path>
            </g>
        </g>
    </g>
</svg>