<?xml version="1.0" encoding="UTF-8"?>
<svg width="208px" height="40px" viewBox="0 0 208 40" version="1.1" xmlns="http://www.w3.org/2000/svg" xmlns:xlink="http://www.w3.org/1999/xlink">
    <!-- Generator: Sketch 52.2 (67145) - http://www.bohemiancoding.com/sketch -->
    <title>SafeLine VPN Logo</title>
    <desc>Created with Sketch.</desc>
    <defs>
        <polygon id="path-1" points="0 40 208 40 208 0 0 0"></polygon>
    </defs>
    <g id="SafeLine-VPN-Logo" stroke="none" stroke-width="1" fill="none" fill-rule="evenodd">
        <g>
            <path d="M53.6025,30.624 C51.7005,30.624 50.1005,30.199 48.8015,29.349 C47.5035,28.498 46.5895,27.342 46.0595,25.879 L49.2955,23.986 C50.0455,25.943 51.5175,26.921 53.7115,26.921 C54.7725,26.921 55.5495,26.729 56.0425,26.345 C56.5375,25.961 56.7845,25.477 56.7845,24.892 C56.7845,24.215 56.4825,23.689 55.8785,23.314 C55.2755,22.939 54.1965,22.532 52.6425,22.094 C51.7825,21.838 51.0555,21.582 50.4615,21.325 C49.8675,21.069 49.2735,20.727 48.6785,20.297 C48.0845,19.867 47.6315,19.323 47.3215,18.665 C47.0095,18.007 46.8545,17.239 46.8545,16.361 C46.8545,14.624 47.4715,13.239 48.7065,12.206 C49.9405,11.173 51.4255,10.656 53.1645,10.656 C54.7175,10.656 56.0845,11.036 57.2645,11.794 C58.4435,12.554 59.3625,13.609 60.0205,14.962 L56.8385,16.8 C56.0715,15.154 54.8455,14.331 53.1645,14.331 C52.3765,14.331 51.7595,14.51 51.3125,14.866 C50.8635,15.223 50.6405,15.685 50.6405,16.251 C50.6405,16.854 50.8915,17.345 51.3945,17.719 C51.8975,18.094 52.8625,18.501 54.2885,18.939 C54.8735,19.122 55.3165,19.265 55.6185,19.364 C55.9195,19.465 56.3315,19.621 56.8525,19.831 C57.3735,20.041 57.7765,20.238 58.0595,20.421 C58.3425,20.603 58.6665,20.851 59.0335,21.161 C59.3985,21.473 59.6775,21.792 59.8705,22.121 C60.0615,22.45 60.2265,22.848 60.3635,23.314 C60.5005,23.78 60.5695,24.288 60.5695,24.837 C60.5695,26.61 59.9245,28.019 58.6355,29.061 C57.3465,30.103 55.6675,30.624 53.6025,30.624" id="Fill-1" fill="#182638"></path>
            <path d="M66.7402,26.167 C67.4532,26.89 68.3582,27.25 69.4562,27.25 C70.5532,27.25 71.4622,26.89 72.1842,26.167 C72.9072,25.444 73.2682,24.517 73.2682,23.383 C73.2682,22.249 72.9072,21.321 72.1842,20.599 C71.4622,19.877 70.5532,19.516 69.4562,19.516 C68.3582,19.516 67.4532,19.877 66.7402,20.599 C66.0272,21.321 65.6712,22.249 65.6712,23.383 C65.6712,24.517 66.0272,25.444 66.7402,26.167 Z M73.2682,16.525 L76.8062,16.525 L76.8062,30.24 L73.2682,30.24 L73.2682,28.622 C72.2082,29.957 70.7182,30.624 68.7982,30.624 C66.9692,30.624 65.4002,29.925 64.0942,28.525 C62.7862,27.127 62.1322,25.413 62.1322,23.383 C62.1322,21.353 62.7862,19.639 64.0942,18.24 C65.4002,16.841 66.9692,16.142 68.7982,16.142 C70.7182,16.142 72.2082,16.81 73.2682,18.144 L73.2682,16.525 Z" id="Fill-3" fill="#182638"></path>
            <path d="M86.9824,14.0576 C85.0444,13.9116 84.0754,14.6876 84.0754,16.3886 L84.0754,16.5256 L86.9824,16.5256 L86.9824,19.9266 L84.0754,19.9266 L84.0754,30.2406 L80.5364,30.2406 L80.5364,19.9266 L78.5614,19.9266 L78.5614,16.5256 L80.5364,16.5256 L80.5364,16.3886 C80.5364,14.4506 81.0764,12.9786 82.1554,11.9726 C83.2334,10.9666 84.8424,10.5286 86.9824,10.6566 L86.9824,14.0576 Z" id="Fill-5" fill="#182638"></path>
            <path d="M90.8877,22.0937 L97.8827,22.0937 C97.6807,21.1607 97.2657,20.4657 96.6347,20.0087 C96.0037,19.5517 95.2857,19.3227 94.4817,19.3227 C93.5307,19.3227 92.7437,19.5667 92.1217,20.0497 C91.5007,20.5347 91.0887,21.2157 90.8877,22.0937 Z M90.9437,24.8367 C91.4177,26.5557 92.7077,27.4147 94.8107,27.4147 C96.1627,27.4147 97.1877,26.9577 97.8827,26.0427 L100.7357,27.6887 C99.3817,29.6457 97.3887,30.6237 94.7557,30.6237 C92.4887,30.6237 90.6687,29.9387 89.2977,28.5667 C87.9257,27.1957 87.2407,25.4677 87.2407,23.3827 C87.2407,21.3167 87.9167,19.5937 89.2707,18.2117 C90.6227,16.8317 92.3607,16.1417 94.4817,16.1417 C96.4927,16.1417 98.1527,16.8367 99.4597,18.2267 C100.7667,19.6157 101.4207,21.3347 101.4207,23.3827 C101.4207,23.8397 101.3747,24.3247 101.2837,24.8367 L90.9437,24.8367 Z" id="Fill-7" fill="#182638"></path>
            <polygon id="Fill-9" fill="#182638" points="107.4277 26.6191 114.7507 26.6191 114.7507 30.2401 103.6427 30.2401 103.6427 11.0401 107.4277 11.0401"></polygon>
            <mask id="mask-2" fill="white">
                <use xlink:href="#path-1"></use>
            </mask>
            <g id="Clip-12"></g>
            <path d="M116.314,30.24 L119.852,30.24 L119.852,16.525 L116.314,16.525 L116.314,30.24 Z M118.069,14.88 C117.484,14.88 116.977,14.665 116.548,14.235 C116.117,13.806 115.902,13.299 115.902,12.713 C115.902,12.128 116.117,11.616 116.548,11.177 C116.977,10.738 117.484,10.519 118.069,10.519 C118.673,10.519 119.189,10.738 119.619,11.177 C120.049,11.616 120.264,12.128 120.264,12.713 C120.264,13.299 120.049,13.806 119.619,14.235 C119.189,14.665 118.673,14.88 118.069,14.88 Z" id="Fill-11" fill="#182638" mask="url(#mask-2)"></path>
            <path d="M130.3027,16.1416 C131.8017,16.1416 133.0407,16.6446 134.0197,17.6506 C134.9967,18.6566 135.4867,20.0456 135.4867,21.8196 L135.4867,30.2406 L131.9487,30.2406 L131.9487,22.2576 C131.9487,21.3436 131.7007,20.6446 131.2077,20.1606 C130.7137,19.6756 130.0557,19.4326 129.2337,19.4326 C128.3187,19.4326 127.5867,19.7166 127.0377,20.2836 C126.4897,20.8506 126.2157,21.7006 126.2157,22.8336 L126.2157,30.2406 L122.6777,30.2406 L122.6777,16.5256 L126.2157,16.5256 L126.2157,18.0616 C127.0747,16.7826 128.4377,16.1416 130.3027,16.1416" id="Fill-13" fill="#182638" mask="url(#mask-2)"></path>
            <path d="M141.0264,22.0937 L148.0214,22.0937 C147.8194,21.1607 147.4044,20.4657 146.7734,20.0087 C146.1424,19.5517 145.4244,19.3227 144.6204,19.3227 C143.6694,19.3227 142.8824,19.5667 142.2604,20.0497 C141.6394,20.5347 141.2274,21.2157 141.0264,22.0937 Z M141.0824,24.8367 C141.5564,26.5557 142.8464,27.4147 144.9494,27.4147 C146.3014,27.4147 147.3264,26.9577 148.0214,26.0427 L150.8744,27.6887 C149.5204,29.6457 147.5274,30.6237 144.8944,30.6237 C142.6274,30.6237 140.8074,29.9387 139.4364,28.5667 C138.0644,27.1957 137.3794,25.4677 137.3794,23.3827 C137.3794,21.3167 138.0554,19.5937 139.4094,18.2117 C140.7614,16.8317 142.4994,16.1417 144.6204,16.1417 C146.6314,16.1417 148.2914,16.8367 149.5984,18.2267 C150.9054,19.6157 151.5594,21.3347 151.5594,23.3827 C151.5594,23.8397 151.5134,24.3247 151.4224,24.8367 L141.0824,24.8367 Z" id="Fill-14" fill="#182638" mask="url(#mask-2)"></path>
            <polygon id="Fill-15" fill="#182638" mask="url(#mask-2)" points="164.9717 30.2402 158.5267 11.0402 162.6407 11.0402 167.3307 25.7972 171.9927 11.0402 176.1357 11.0402 169.6617 30.2402"></polygon>
            <path d="M184.7197,20.3936 C185.5247,20.3936 186.1927,20.1146 186.7227,19.5566 C187.2527,18.9986 187.5177,18.3086 187.5177,17.4856 C187.5177,16.6446 187.2527,15.9496 186.7227,15.4016 C186.1927,14.8526 185.5247,14.5786 184.7197,14.5786 L181.3467,14.5786 L181.3467,20.3936 L184.7197,20.3936 Z M184.7197,11.0396 C186.5677,11.0396 188.1207,11.6626 189.3827,12.9056 C190.6447,14.1486 191.2757,15.6756 191.2757,17.4856 C191.2757,19.2956 190.6447,20.8236 189.3827,22.0666 C188.1207,23.3096 186.5677,23.9316 184.7197,23.9316 L181.3467,23.9316 L181.3467,30.2406 L177.5617,30.2406 L177.5617,11.0396 L184.7197,11.0396 Z" id="Fill-16" fill="#182638" mask="url(#mask-2)"></path>
            <polygon id="Fill-17" fill="#182638" mask="url(#mask-2)" points="203.8701 11.04 207.6551 11.04 207.6551 30.24 204.7741 30.24 196.5461 18.501 196.5461 30.24 192.7611 30.24 192.7611 11.04 195.6411 11.04 203.8701 22.752"></polygon>
            <path d="M20,35.4111 C17.4,34.3081 15.04,32.7611 13.006,30.8401 C15.325,30.6141 17.659,30.5001 20,30.5001 C22.341,30.5001 24.675,30.6141 26.994,30.8401 C24.96,32.7611 22.6,34.3081 20,35.4111 Z M20,18.5001 C15.414,18.5001 10.85,18.9171 6.373,19.7401 C5.945,18.1401 5.687,16.4891 5.603,14.8101 C10.318,13.8471 15.146,13.3571 20,13.3571 C24.854,13.3571 29.682,13.8471 34.397,14.8101 C34.313,16.4891 34.055,18.1401 33.627,19.7401 C29.15,18.9171 24.586,18.5001 20,18.5001 Z M29.774,27.7061 C26.544,27.2841 23.277,27.0711 20,27.0711 C16.723,27.0711 13.457,27.2841 10.226,27.7061 C10.078,27.5081 9.934,27.3071 9.793,27.1041 C8.893,25.8101 8.133,24.4421 7.515,23.0181 C11.62,22.2961 15.8,21.9291 20,21.9291 C24.2,21.9291 28.38,22.2961 32.485,23.0181 C31.867,24.4421 31.107,25.8101 30.208,27.1041 C30.066,27.3071 29.922,27.5081 29.774,27.7061 Z M20,4.7861 C25.015,4.7861 29.98,5.9631 34.429,8.1981 L34.429,11.3211 C29.695,10.3971 24.86,9.9291 20,9.9291 C15.14,9.9291 10.305,10.3971 5.571,11.3211 L5.571,8.1981 C10.02,5.9631 14.986,4.7861 20,4.7861 Z M36.962,5.6541 C31.789,2.8431 25.924,1.3571 20,1.3571 C14.076,1.3571 8.212,2.8431 3.039,5.6541 L2.143,6.1401 L2.143,13.6071 C2.143,19.1681 3.814,24.5121 6.978,29.0611 C10.066,33.5061 14.354,36.8931 19.375,38.8581 L20,39.1031 L20.625,38.8581 C25.646,36.8931 29.934,33.5061 33.022,29.0611 C36.186,24.5121 37.857,19.1681 37.857,13.6071 L37.857,6.1401 L36.962,5.6541 Z" id="Fill-18" fill="#2580E5" mask="url(#mask-2)"></path>
        </g>
    </g>
</svg>