<?xml version="1.0" encoding="UTF-8"?>
<svg width="16px" height="16px" viewBox="0 0 16 16" version="1.1" xmlns="http://www.w3.org/2000/svg" xmlns:xlink="http://www.w3.org/1999/xlink">
    <!-- Generator: Sketch 52.2 (67145) - http://www.bohemiancoding.com/sketch -->
    <title>SafeLine VPN Icon - White</title>
    <desc>Created with Sketch.</desc>
    <defs>
        <polygon id="path-1" points="0.431 0.0001 15.569 0.0001 15.569 16 0.431 16"></polygon>
    </defs>
    <g id="SafeLine-VPN-Icon---White" stroke="none" stroke-width="1" fill="none" fill-rule="evenodd">
        <g>
            <polygon id="Fill-1" points="0 16 16 16 16 0 0 0"></polygon>
            <g id="Group-4">
                <mask id="mask-2" fill="white">
                    <use xlink:href="#path-1"></use>
                </mask>
                <g id="Clip-3"></g>
                <path d="M8,14.4351 C6.898,13.9671 5.897,13.3111 5.035,12.4971 C6.019,12.4011 7.008,12.3531 8,12.3531 C8.992,12.3531 9.981,12.4011 10.965,12.4971 C10.103,13.3111 9.102,13.9671 8,14.4351 Z M8,7.2671 C6.056,7.2671 4.121,7.4431 2.224,7.7921 C2.042,7.1141 1.933,6.4141 1.897,5.7031 C3.896,5.2941 5.942,5.0861 8,5.0861 C10.058,5.0861 12.104,5.2941 14.103,5.7031 C14.067,6.4141 13.958,7.1141 13.776,7.7921 C11.879,7.4431 9.944,7.2671 8,7.2671 Z M12.144,11.1691 C10.773,10.9901 9.39,10.9001 8,10.9001 C6.61,10.9001 5.227,10.9901 3.856,11.1691 C3.794,11.0851 3.733,11.0001 3.673,10.9141 C3.292,10.3651 2.97,9.7861 2.708,9.1821 C4.448,8.8751 6.22,8.7201 8,8.7201 C9.78,8.7201 11.552,8.8751 13.292,9.1821 C13.03,9.7861 12.708,10.3651 12.327,10.9141 C12.267,11.0001 12.206,11.0851 12.144,11.1691 Z M8,1.4531 C10.125,1.4531 12.23,1.9521 14.116,2.9001 L14.116,4.2241 C12.109,3.8321 10.061,3.6331 8,3.6331 C5.939,3.6331 3.891,3.8321 1.884,4.2241 L1.884,2.9001 C3.77,1.9521 5.875,1.4531 8,1.4531 Z M15.189,1.8211 C12.997,0.6301 10.511,0.0001 8,0.0001 C5.489,0.0001 3.003,0.6301 0.811,1.8211 L0.431,2.0281 L0.431,5.1921 C0.431,7.5501 1.14,9.8151 2.479,11.7441 C3.789,13.6271 5.606,15.0631 7.735,15.8961 L8,16.0001 L8.265,15.8961 C10.394,15.0631 12.211,13.6271 13.521,11.7441 C14.86,9.8151 15.569,7.5501 15.569,5.1921 L15.569,2.0281 L15.189,1.8211 Z" id="Fill-2" fill="#FFFFFF" mask="url(#mask-2)"></path>
            </g>
        </g>
    </g>
</svg>