<?xml version="1.0" encoding="UTF-8"?>
<svg width="142px" height="99px" viewBox="0 0 142 99" version="1.1" xmlns="http://www.w3.org/2000/svg" xmlns:xlink="http://www.w3.org/1999/xlink">
    <!-- Generator: Sketch 52.2 (67145) - http://www.bohemiancoding.com/sketch -->
    <title>SafeLine VPN Logo Vertical</title>
    <desc>Created with Sketch.</desc>
    <defs>
        <polygon id="path-1" points="0 99 142 99 142 0 0 0"></polygon>
    </defs>
    <g id="SafeLine-VPN-Logo-Vertical" stroke="none" stroke-width="1" fill="none" fill-rule="evenodd">
        <g>
            <path d="M6.9023,95.7959 C5.2383,95.7959 3.8383,95.4239 2.7023,94.6799 C1.5653,93.9359 0.7653,92.9239 0.3013,91.6439 L3.1333,89.9879 C3.7903,91.6999 5.0783,92.5559 6.9983,92.5559 C7.9253,92.5559 8.6063,92.3879 9.0383,92.0519 C9.4693,91.7159 9.6863,91.2919 9.6863,90.7799 C9.6863,90.1889 9.4223,89.7289 8.8943,89.3999 C8.3663,89.0719 7.4223,88.7159 6.0623,88.3319 C5.3093,88.1089 4.6733,87.8839 4.1543,87.6599 C3.6333,87.4359 3.1143,87.1359 2.5933,86.7599 C2.0743,86.3839 1.6773,85.9079 1.4063,85.3319 C1.1333,84.7559 0.9983,84.0839 0.9983,83.3169 C0.9983,81.7959 1.5383,80.5839 2.6183,79.6799 C3.6983,78.7759 4.9983,78.3239 6.5183,78.3239 C7.8783,78.3239 9.0743,78.6559 10.1063,79.3199 C11.1373,79.9839 11.9423,80.9079 12.5183,82.0919 L9.7343,83.6999 C9.0623,82.2599 7.9903,81.5399 6.5183,81.5399 C5.8303,81.5399 5.2903,81.6959 4.8983,82.0079 C4.5063,82.3199 4.3103,82.7249 4.3103,83.2199 C4.3103,83.7479 4.5303,84.1759 4.9693,84.5039 C5.4103,84.8319 6.2543,85.1879 7.5023,85.5719 C8.0133,85.7329 8.4023,85.8569 8.6663,85.9439 C8.9293,86.0319 9.2903,86.1679 9.7463,86.3519 C10.2023,86.5359 10.5533,86.7079 10.8013,86.8679 C11.0493,87.0279 11.3343,87.2439 11.6543,87.5159 C11.9733,87.7879 12.2173,88.0679 12.3853,88.3559 C12.5533,88.6439 12.6983,88.9919 12.8183,89.3999 C12.9383,89.8079 12.9983,90.2519 12.9983,90.7329 C12.9983,92.2839 12.4333,93.5159 11.3053,94.4279 C10.1773,95.3399 8.7103,95.7959 6.9023,95.7959" id="Fill-1" fill="#FFFFFF"></path>
            <path d="M18.3975,91.8965 C19.0215,92.5285 19.8135,92.8435 20.7735,92.8435 C21.7335,92.8435 22.5295,92.5285 23.1625,91.8965 C23.7935,91.2635 24.1095,90.4525 24.1095,89.4595 C24.1095,88.4675 23.7935,87.6565 23.1625,87.0235 C22.5295,86.3925 21.7335,86.0765 20.7735,86.0765 C19.8135,86.0765 19.0215,86.3925 18.3975,87.0235 C17.7735,87.6565 17.4615,88.4675 17.4615,89.4595 C17.4615,90.4525 17.7735,91.2635 18.3975,91.8965 Z M24.1095,83.4595 L27.2065,83.4595 L27.2065,95.4595 L24.1095,95.4595 L24.1095,94.0435 C23.1815,95.2115 21.8775,95.7955 20.1975,95.7955 C18.5975,95.7955 17.2255,95.1835 16.0825,93.9595 C14.9375,92.7365 14.3655,91.2365 14.3655,89.4595 C14.3655,87.6835 14.9375,86.1835 16.0825,84.9595 C17.2255,83.7365 18.5975,83.1245 20.1975,83.1245 C21.8775,83.1245 23.1815,83.7085 24.1095,84.8755 L24.1095,83.4595 Z" id="Fill-3" fill="#FFFFFF"></path>
            <path d="M36.1094,81.2998 C34.4134,81.1718 33.5654,81.8518 33.5654,83.3398 L33.5654,83.4598 L36.1094,83.4598 L36.1094,86.4358 L33.5654,86.4358 L33.5654,95.4598 L30.4694,95.4598 L30.4694,86.4358 L28.7414,86.4358 L28.7414,83.4598 L30.4694,83.4598 L30.4694,83.3398 C30.4694,81.6448 30.9414,80.3568 31.8854,79.4758 C32.8294,78.5958 34.2374,78.2118 36.1094,78.3238 L36.1094,81.2998 Z" id="Fill-5" fill="#FFFFFF"></path>
            <path d="M39.5273,88.332 L45.6473,88.332 C45.4703,87.516 45.1073,86.908 44.5543,86.508 C44.0033,86.108 43.3753,85.908 42.6713,85.908 C41.8393,85.908 41.1503,86.12 40.6073,86.544 C40.0623,86.968 39.7033,87.564 39.5273,88.332 Z M39.5753,90.732 C39.9913,92.236 41.1193,92.988 42.9593,92.988 C44.1423,92.988 45.0393,92.588 45.6473,91.788 L48.1433,93.228 C46.9593,94.94 45.2143,95.796 42.9113,95.796 C40.9263,95.796 39.3353,95.196 38.1343,93.996 C36.9353,92.796 36.3353,91.284 36.3353,89.46 C36.3353,87.652 36.9263,86.144 38.1113,84.936 C39.2953,83.728 40.8143,83.124 42.6713,83.124 C44.4313,83.124 45.8823,83.732 47.0273,84.948 C48.1713,86.164 48.7433,87.668 48.7433,89.46 C48.7433,89.86 48.7033,90.284 48.6233,90.732 L39.5753,90.732 Z" id="Fill-7" fill="#FFFFFF"></path>
            <polygon id="Fill-9" fill="#FFFFFF" points="53.999 92.292 60.407 92.292 60.407 95.46 50.687 95.46 50.687 78.66 53.999 78.66"></polygon>
            <mask id="mask-2" fill="white">
                <use xlink:href="#path-1"></use>
            </mask>
            <g id="Clip-12"></g>
            <path d="M61.775,95.46 L64.871,95.46 L64.871,83.46 L61.775,83.46 L61.775,95.46 Z M63.311,82.02 C62.799,82.02 62.354,81.832 61.979,81.456 C61.603,81.08 61.415,80.637 61.415,80.124 C61.415,79.612 61.603,79.164 61.979,78.78 C62.354,78.396 62.799,78.204 63.311,78.204 C63.839,78.204 64.291,78.396 64.667,78.78 C65.043,79.164 65.23,79.612 65.23,80.124 C65.23,80.637 65.043,81.08 64.667,81.456 C64.291,81.832 63.839,82.02 63.311,82.02 Z" id="Fill-11" fill="#FFFFFF" mask="url(#mask-2)"></path>
            <path d="M74.0146,83.124 C75.3266,83.124 76.4106,83.564 77.2666,84.444 C78.1226,85.324 78.5506,86.54 78.5506,88.092 L78.5506,95.46 L75.4546,95.46 L75.4546,88.476 C75.4546,87.676 75.2386,87.064 74.8066,86.64 C74.3746,86.216 73.7986,86.004 73.0786,86.004 C72.2786,86.004 71.6386,86.252 71.1586,86.748 C70.6786,87.244 70.4386,87.988 70.4386,88.98 L70.4386,95.46 L67.3426,95.46 L67.3426,83.46 L70.4386,83.46 L70.4386,84.804 C71.1906,83.685 72.3826,83.124 74.0146,83.124" id="Fill-13" fill="#FFFFFF" mask="url(#mask-2)"></path>
            <path d="M83.3984,88.332 L89.5184,88.332 C89.3414,87.516 88.9784,86.908 88.4264,86.508 C87.8754,86.108 87.2464,85.908 86.5434,85.908 C85.7114,85.908 85.0224,86.12 84.4784,86.544 C83.9344,86.968 83.5744,87.564 83.3984,88.332 Z M83.4464,90.732 C83.8624,92.236 84.9904,92.988 86.8304,92.988 C88.0144,92.988 88.9104,92.588 89.5184,91.788 L92.0144,93.228 C90.8304,94.94 89.0864,95.796 86.7824,95.796 C84.7984,95.796 83.2074,95.196 82.0064,93.996 C80.8064,92.796 80.2074,91.284 80.2074,89.46 C80.2074,87.652 80.7984,86.144 81.9824,84.936 C83.1664,83.728 84.6864,83.124 86.5434,83.124 C88.3024,83.124 89.7534,83.732 90.8984,84.948 C92.0424,86.164 92.6144,87.668 92.6144,89.46 C92.6144,89.86 92.5744,90.284 92.4944,90.732 L83.4464,90.732 Z" id="Fill-14" fill="#FFFFFF" mask="url(#mask-2)"></path>
            <polygon id="Fill-15" fill="#FFFFFF" mask="url(#mask-2)" points="104.3506 95.46 98.7106 78.66 102.3106 78.66 106.4136 91.572 110.4946 78.66 114.1186 78.66 108.4546 95.46"></polygon>
            <path d="M121.6299,86.8438 C122.3339,86.8438 122.9179,86.6008 123.3819,86.1128 C123.8459,85.6238 124.0779,85.0198 124.0779,84.2998 C124.0779,83.5648 123.8459,82.9558 123.3819,82.4758 C122.9179,81.9958 122.3339,81.7558 121.6299,81.7558 L118.6779,81.7558 L118.6779,86.8438 L121.6299,86.8438 Z M121.6299,78.6598 C123.2459,78.6598 124.6069,79.2038 125.7099,80.2918 C126.8149,81.3798 127.3659,82.7158 127.3659,84.2998 C127.3659,85.8838 126.8149,87.2198 125.7099,88.3078 C124.6069,89.3968 123.2459,89.9398 121.6299,89.9398 L118.6779,89.9398 L118.6779,95.4598 L115.3659,95.4598 L115.3659,78.6598 L121.6299,78.6598 Z" id="Fill-16" fill="#FFFFFF" mask="url(#mask-2)"></path>
            <polygon id="Fill-17" fill="#FFFFFF" mask="url(#mask-2)" points="138.3857 78.6602 141.6987 78.6602 141.6987 95.4602 139.1777 95.4602 131.9787 85.1872 131.9787 95.4602 128.6657 95.4602 128.6657 78.6602 131.1857 78.6602 138.3857 88.9082"></polygon>
            <path d="M71,61.9697 C66.451,60.0387 62.32,57.3317 58.76,53.9697 C62.818,53.5737 66.903,53.3747 71,53.3747 C75.097,53.3747 79.182,53.5737 83.24,53.9697 C79.68,57.3317 75.549,60.0387 71,61.9697 Z M71,32.3747 C62.975,32.3747 54.987,33.1057 47.152,34.5457 C46.403,31.7437 45.951,28.8557 45.804,25.9187 C54.057,24.2317 62.506,23.3747 71,23.3747 C79.494,23.3747 87.943,24.2317 96.196,25.9187 C96.049,28.8557 95.597,31.7437 94.848,34.5457 C87.013,33.1057 79.025,32.3747 71,32.3747 Z M88.105,48.4857 C82.451,47.7477 76.735,47.3747 71,47.3747 C65.265,47.3747 59.549,47.7477 53.895,48.4857 C53.637,48.1387 53.384,47.7887 53.137,47.4327 C51.563,45.1687 50.232,42.7747 49.151,40.2827 C56.335,39.0167 63.65,38.3747 71,38.3747 C78.35,38.3747 85.665,39.0167 92.849,40.2827 C91.768,42.7747 90.437,45.1687 88.863,47.4327 C88.616,47.7887 88.363,48.1387 88.105,48.4857 Z M71,8.3747 C79.774,8.3747 88.466,10.4347 96.25,14.3467 L96.25,19.8117 C87.967,18.1957 79.505,17.3747 71,17.3747 C62.495,17.3747 54.033,18.1957 45.75,19.8117 L45.75,14.3467 C53.534,10.4347 62.226,8.3747 71,8.3747 Z M100.683,9.8947 C91.63,4.9757 81.366,2.3747 71,2.3747 C60.634,2.3747 50.37,4.9757 41.317,9.8947 L39.75,10.7457 L39.75,23.8127 C39.75,33.5427 42.676,42.8957 48.21,50.8577 C53.616,58.6347 61.119,64.5637 69.906,68.0027 L71,68.4307 L72.094,68.0027 C80.881,64.5637 88.384,58.6347 93.79,50.8577 C99.324,42.8957 102.25,33.5427 102.25,23.8127 L102.25,10.7457 L100.683,9.8947 Z" id="Fill-18" fill="#2580E5" mask="url(#mask-2)"></path>
        </g>
    </g>
</svg>